<?xml version="1.0" encoding="UTF-8" standalone="no"?>
<!-- Created with Inkscape (http://www.inkscape.org/) -->

<svg
   width="163.07059mm"
   height="124.31768mm"
   viewBox="0 0 163.07059 124.31768"
   version="1.1"
   id="svg5"
   inkscape:version="1.1.1 (c3084ef, 2021-09-22)"
   sodipodi:docname="starburst.svg"
   xmlns:inkscape="http://www.inkscape.org/namespaces/inkscape"
   xmlns:sodipodi="http://sodipodi.sourceforge.net/DTD/sodipodi-0.dtd"
   xmlns="http://www.w3.org/2000/svg"
   xmlns:svg="http://www.w3.org/2000/svg">
  <sodipodi:namedview
     id="namedview7"
     pagecolor="#ffffff"
     bordercolor="#666666"
     borderopacity="1.0"
     inkscape:pageshadow="2"
     inkscape:pageopacity="0.0"
     inkscape:pagecheckerboard="0"
     inkscape:document-units="mm"
     showgrid="false"
     inkscape:zoom="0.63832242"
     inkscape:cx="320.37101"
     inkscape:cy="195.8258"
     inkscape:window-width="1312"
     inkscape:window-height="800"
     inkscape:window-x="0"
     inkscape:window-y="72"
     inkscape:window-maximized="0"
     inkscape:current-layer="layer1" />
  <defs
     id="defs2" />
  <g
     inkscape:label="Layer 1"
     inkscape:groupmode="layer"
     id="layer1"
     transform="translate(-33.707069,-80.128698)">
    <path
       style="fill:#ff0000;fill-opacity:1;stroke:#000000;stroke-width:2;stroke-miterlimit:4;stroke-dasharray:none;stroke-opacity:1"
       d="m 78.876217,101.36959 c -5.152402,-1.880788 -9.963867,-5.053746 -14.827716,-7.57471 -1.297205,-0.672419 -3.850879,-2.737608 -5.340843,-1.622253 -1.488982,1.114419 0.244699,3.667197 0.7889,4.872337 2.106796,4.664116 4.407405,9.248486 6.411599,13.958196 -4.64196,0.36737 -9.553069,-0.24455 -14.207139,-0.48149 -1.310791,-0.0667 -4.135052,-0.68609 -4.85835,0.84558 -0.74873,1.58544 1.622312,3.31213 2.542473,4.26861 3.246295,3.37446 6.885854,6.74779 9.700614,10.48332 -5.766387,1.6508 -11.530233,3.45329 -17.244318,5.28012 -1.443468,0.46164 -5.169009,0.89028 -5.435163,2.75714 -0.302263,2.12039 4.544856,2.99703 5.986327,3.54269 6.954939,2.63248 14.292147,5.34659 21.516389,7.12084 -6.645441,4.00686 -15.044275,6.14718 -22.217791,9.14813 -1.544934,0.64652 -6.752076,1.81494 -6.975258,3.74958 -0.345086,2.99174 5.847725,1.53913 7.425881,1.40106 l 25.654781,-2.24451 c -2.918931,4.33242 -7.719533,8.10882 -11.351859,11.91616 -1.034131,1.08379 -3.966713,3.17969 -3.45536,4.94524 0.774775,2.67492 6.133874,-0.17083 7.72562,-0.66034 7.638049,-2.34857 15.298613,-5.58123 23.084971,-7.33155 -1.304296,7.17997 -4.581128,14.54952 -6.873081,21.49471 -0.562935,1.70549 -2.773722,6.15409 -1.476536,7.76128 1.517123,1.87871 4.66771,-1.84186 5.708675,-2.77469 5.252342,-4.70797 10.676718,-9.28721 15.758116,-14.17215 l 2.756359,10.73674 1.776072,3.51087 3.63744,-1.81901 7.87748,-7.10417 c 1.02232,5.33434 5.55196,11.20784 8.23096,15.92377 0.65178,1.14772 2.12064,4.94787 3.98577,4.02049 1.23257,-0.61282 1.13808,-3.99601 1.33708,-5.19443 0.87106,-5.25069 2.64305,-10.83304 2.61222,-16.16418 4.18822,1.52177 8.26765,5.41863 12.02108,7.87615 1.25202,0.81968 3.41567,2.8713 5.05957,2.08651 1.24716,-0.59569 0.89318,-2.29001 0.87813,-3.38896 -0.0404,-2.94314 0.0333,-5.90477 -0.0971,-8.84464 4.12509,2.38676 8.075,5.34163 12.03338,8.01672 1.10355,0.74591 3.19848,2.70402 4.64426,1.75561 1.42706,-0.9358 -0.0266,-3.66323 -0.45858,-4.81706 -1.65922,-4.42979 -3.45367,-8.8874 -4.9159,-13.38081 6.9191,4.10665 13.95354,8.0056 20.88845,12.08644 1.22829,0.72261 5.77562,4.29274 6.87909,2.01408 0.88125,-1.81939 -2.50457,-4.73792 -3.53214,-5.9512 -4.20864,-4.96882 -8.57011,-9.98057 -12.45785,-15.19985 5.61083,1.2677 11.53625,2.09569 17.24431,2.81519 1.45701,0.18381 5.34677,1.28125 5.39032,-1.26484 0.033,-1.91409 -3.46341,-3.49392 -4.82138,-4.37515 -5.34886,-3.47063 -10.95891,-6.73708 -16.13939,-10.42428 4.00741,-0.3506 8.32167,-1.09598 12.30899,-0.97598 1.88113,0.0568 5.66756,0.5035 7.21195,-0.79527 1.74596,-1.46797 -0.94328,-3.24909 -1.97041,-4.04029 -3.39052,-2.61215 -7.2588,-6.39467 -11.30802,-7.83725 1.40327,-3.65659 6.54419,-7.02329 9.42696,-9.63185 1.13077,-1.02354 3.26329,-2.37165 3.60159,-3.96117 0.43647,-2.04997 -2.48008,-2.35326 -3.82809,-2.6755 -4.46177,-1.06617 -8.91348,-2.16296 -13.38231,-3.19663 3.44105,-3.77219 7.35908,-7.19268 11.10788,-10.65715 1.09201,-1.00917 3.61336,-2.6406 3.27629,-4.39661 -0.40527,-2.11065 -3.50015,-0.79712 -4.76225,-0.44491 -5.12027,1.42911 -10.65098,2.29143 -15.55666,4.33175 -0.53405,-4.46898 1.02004,-9.870456 1.71306,-14.314877 0.2155,-1.382092 1.23339,-4.33135 -0.10948,-5.388108 -1.53985,-1.211523 -4.03702,1.279302 -5.27277,2.049949 -4.66367,2.908112 -9.37085,6.8609 -14.44279,8.967998 -0.38112,-3.97532 -1.29745,-7.920561 -1.74299,-11.887766 -0.132,-1.17261 0.0843,-3.541405 -1.4583,-3.869711 -1.62055,-0.344894 -2.7889,1.864121 -3.59881,2.895933 -2.928,3.730916 -5.58963,7.673136 -8.5576,11.372166 -0.66906,-3.976223 -2.29523,-7.85416 -3.35642,-11.746608 -0.32395,-1.189213 -0.61256,-3.585365 -2.25937,-3.63542 -1.60278,-0.04866 -3.03333,2.405575 -3.92554,3.468277 -3.15696,3.760935 -6.11109,7.67088 -9.26922,11.434721 -1.93078,-3.69254 -4.28883,-7.257708 -6.54817,-10.759129 -0.73125,-1.133214 -1.63544,-3.340272 -3.22213,-3.407449 -1.64108,-0.06954 -2.41824,2.024832 -2.95329,3.239477 -1.71779,3.898705 -4.055528,7.904163 -4.878935,12.112991 -3.791887,-1.52093 -7.495549,-6.740879 -10.261793,-9.725972 -1.159452,-1.25125 -2.491185,-3.57714 -4.367262,-3.734091 -2.050159,-0.171466 -2.04664,2.556408 -2.269767,3.96063 -0.724288,4.552473 -1.453449,9.105903 -2.214898,13.650539 m 44.812485,-9.940712 -0.32069,0.382182 0.32069,-0.382182 m -63.891156,22.587762 -0.320688,0.38218 0.320688,-0.38218 m 2.490794,0.13621 -0.320689,0.38218 0.320689,-0.38218 m -5.939672,37.34869 -0.320688,0.38218 0.320688,-0.38218 m 128.383694,-5.92023 -0.3207,0.38218 0.3207,-0.38218 m -11.39108,15.51573 -0.32068,0.38218 0.32068,-0.38218 m -18.3801,4.44105 -0.32069,0.38218 0.32069,-0.38218 m 29.90276,-2.26203 -0.32069,0.38219 0.32069,-0.38219 m -10.35429,11.17551 -0.32068,0.38219 0.32068,-0.38219 m -37.90675,7.92004 -0.32068,0.38219 0.32068,-0.38219 m -10.74076,2.71032 -0.32068,0.38219 0.32068,-0.38219 m -0.19769,1.78793 -0.32069,0.38218 z"
       id="path868" />
    <text
       xml:space="preserve"
       style="font-size:24.6944px;line-height:1.25;font-family:Oswald;-inkscape-font-specification:Oswald;fill:#ffffff;fill-opacity:1;stroke:#000000;stroke-width:1;stroke-miterlimit:4;stroke-dasharray:none;stroke-opacity:1"
       x="36.722649"
       y="147.19441"
       id="text2074"><tspan
         id="tspan2072"
         style="font-style:normal;font-variant:normal;font-weight:bold;font-stretch:normal;font-size:24.6944px;font-family:Helvetica;-inkscape-font-specification:'Helvetica Bold';fill:#ffffff;fill-opacity:1;stroke:#000000;stroke-width:1;stroke-miterlimit:4;stroke-dasharray:none;stroke-opacity:1"
         x="36.722649"
         y="147.19441"
         sodipodi:role="line">DISPENSARY</tspan></text>
  </g>
</svg>
