<?xml version="1.0" encoding="UTF-8" standalone="no"?>
<!-- Created with Inkscape (http://www.inkscape.org/) -->

<svg
   width="380.47714mm"
   height="37.343304mm"
   viewBox="0 0 380.47714 37.343304"
   version="1.1"
   id="svg5"
   inkscape:export-filename="/Users/danieldahdal/Documents/GitHub/danieldahdal.github.io/clients/harlan-blackshire/i-am-that-smoke/collections/heritage/island/media/THAT_ISLAND_BORN_SMOKE.png"
   inkscape:export-xdpi="384"
   inkscape:export-ydpi="384"
   inkscape:version="1.1.1 (c3084ef, 2021-09-22)"
   sodipodi:docname="THAT_ISLAND_BORN_SMOKE.svg"
   xmlns:inkscape="http://www.inkscape.org/namespaces/inkscape"
   xmlns:sodipodi="http://sodipodi.sourceforge.net/DTD/sodipodi-0.dtd"
   xmlns="http://www.w3.org/2000/svg"
   xmlns:svg="http://www.w3.org/2000/svg">
  <sodipodi:namedview
     id="namedview7"
     pagecolor="#ffffff"
     bordercolor="#666666"
     borderopacity="1.0"
     inkscape:pageshadow="2"
     inkscape:pageopacity="0.0"
     inkscape:pagecheckerboard="0"
     inkscape:document-units="mm"
     showgrid="false"
     inkscape:zoom="0.92628928"
     inkscape:cx="672.03628"
     inkscape:cy="-77.189709"
     inkscape:window-width="1312"
     inkscape:window-height="799"
     inkscape:window-x="30"
     inkscape:window-y="25"
     inkscape:window-maximized="0"
     inkscape:current-layer="layer1" />
  <defs
     id="defs2" />
  <g
     inkscape:label="Layer 1"
     inkscape:groupmode="layer"
     id="layer1"
     transform="translate(85.490714,-129.8414)">
    <path
       style="fill:#000000;stroke:#ff0000;stroke-width:0.8;stroke-miterlimit:4;stroke-dasharray:none;stroke-opacity:1"
       d="m 0.17126666,155.14765 -4.36562506,1.12448 c 0,3.3233 1.2871979,7.16432 4.16718756,9.05676 4.62227094,3.03715 12.01671384,1.202 13.50168784,-4.42655 0.239448,-0.90858 0.322792,-1.84183 0.322792,-2.77812 0,-6.10017 -4.8345995,-9.67053 -8.9958339,-13.36477 -2.2939376,-2.03617 -4.89545323,-3.91418 -4.45029177,-7.33888 0.079375,-0.60978 0.21232813,-1.1912 0.54438022,-1.71979 1.13043235,-1.8 4.06267715,-2.0661 5.75799485,-0.95615 0.8162396,0.53433 1.3626042,1.37603 1.6906876,2.27906 0.2890573,0.79375 0.4464844,1.6768 0.5476875,2.51355 0.027781,0.22483 -0.012568,0.84693 0.1825625,0.98775 0.2328333,0.16735 0.8367448,-0.12091 1.084792,-0.18633 0.99814,-0.26366 2.019432,-0.66358 3.042708,-0.80142 -0.002,-2.79414 -1.195917,-6.27091 -3.571875,-7.88815 -1.2501563,-0.85101 -2.8125209,-1.20781 -4.2994792,-1.31204 -4.1103022,-0.2881 -8.1650419,1.32666 -9.2022085,5.69446 -0.6502136,2.74201 -0.2804584,6.06015 1.3447448,8.40052 1.6271875,2.34474 4.2564844,4.20019 6.4022553,6.05737 2.0683802,1.79043 4.7340574,3.83705 5.1964168,6.70877 0.2030677,1.25883 0.2057135,2.77284 -0.4636823,3.90261 -1.1205105,1.88978 -4.0481251,2.25465 -5.7910679,1.00614 -2.08028645,-1.49006 -2.460625,-4.60963 -2.64583334,-6.95927 M 144.69992,130.30489 c -2.7477,0.36078 -5.31548,0.93437 -6.97707,3.41151 -2.41035,3.59258 -1.82033,8.46727 -1.82033,12.56771 v 4.23333 c 0,5.22916 -0.80103,12.68717 4.96094,15.3254 0.92538,0.42366 1.90897,0.62329 2.91041,0.76597 1.34872,0.19209 2.75432,0.15412 4.10105,-0.0369 3.38865,-0.48041 5.78842,-2.68399 6.78391,-5.9342 0.92141,-3.00666 0.75671,-6.155 0.75671,-9.26042 v -4.16719 -2.91041 c 0,-4.64152 0.14155,-10.70579 -4.7625,-13.07978 -0.81161,-0.39292 -1.69333,-0.61688 -2.57969,-0.76098 -1.07685,-0.17501 -2.28666,-0.29683 -3.37343,-0.15409 m -158.55157,0.30266 v 35.71875 h 4.8947915 v -35.7187 H -13.85165 m 31.551563,0 v 35.71875 h 14.089063 v -3.57188 H 22.66085 v -32.14687 h -4.960937 m 23.084896,0 c -0.413411,3.20246 -1.329531,6.43619 -2.02274,9.59114 -1.246849,5.67889 -2.404401,11.37854 -3.613547,17.06563 -0.435901,2.05059 -0.884369,4.09866 -1.309026,6.15156 -0.197776,0.95336 -0.515937,1.94039 -0.595312,2.91042 h 3.373437 l 1.207823,-0.068 0.194469,-0.59346 0.3175,-1.65365 1.256771,-6.68072 h 7.342188 l 0.501385,2.97656 1.086115,6.01927 h 4.696354 l -0.898261,-4.29948 -1.653645,-7.73906 -5.054865,-23.68021 h -4.828646 m 16.073438,0 v 35.71875 h 4.233333 v -24.34167 h 0.06615 c 0.437224,1.84097 1.525984,3.67348 2.248297,5.42396 1.787922,4.33341 3.638682,8.64182 5.452401,12.96458 0.815578,1.94363 1.906985,3.92801 2.485761,5.95313 h 3.175 v -35.71875 h -4.101042 v 23.68021 l -2.50362,-5.82084 -4.838568,-11.31093 -2.002896,-4.69636 -0.821531,-1.7841 -0.945885,-0.068 h -2.447396 m 23.283334,0 v 35.71875 h 6.746875 c 2.975239,0 6.095338,-0.0728 8.466667,-2.13578 1.852083,-1.61165 2.587625,-4.11176 2.910416,-6.46318 0.431933,-3.14391 0.198438,-6.42097 0.198438,-9.59115 0,-2.84962 0.24937,-5.83498 -0.08533,-8.6651 -0.292365,-2.47762 -0.856589,-5.01571 -2.825089,-6.72773 -2.321057,-2.01845 -5.556912,-2.13581 -8.466667,-2.13581 h -6.945312 m 33.337497,0 v 35.71875 h 7.80521 c 3.00302,0 6.18067,-0.0812 8.39457,-2.44746 2.81913,-3.01281 3.07644,-8.35442 1.81372,-12.10462 -0.77126,-2.29262 -2.8489,-4.42351 -5.37964,-4.63021 1.19525,-0.50767 2.3495,-0.62475 3.2881,-1.65623 1.31035,-1.43966 1.694,-3.47206 1.73964,-5.35523 0.0761,-3.10052 -0.47691,-6.35621 -3.30795,-8.1561 -2.07566,-1.31966 -4.64013,-1.3689 -7.01146,-1.3689 h -7.34219 m 46.83125,0 v 35.71875 h 4.96094 v -6.94531 -4.56407 -3.70416 c 0,-0.3687 -0.14221,-1.11893 0.0681,-1.43418 0.15875,-0.23825 0.61383,-0.15332 0.85791,-0.15332 h 2.18281 c 0.27715,0 0.65948,-0.073 0.8222,0.20822 0.57547,0.99292 0.71239,2.52241 1.02989,3.62824 0.82682,2.8821 1.61594,5.77618 2.41961,8.6651 0.26922,0.97023 0.54835,1.9384 0.81161,2.91042 0.0966,0.35586 0.14817,1.00634 0.40217,1.28303 0.22092,0.24024 0.95977,0.10603 1.2614,0.10603 h 3.50573 c -0.21762,-1.48114 -0.81823,-2.99092 -1.22899,-4.43177 -0.83542,-2.92967 -1.6887,-5.85695 -2.4851,-8.7974 -0.27583,-1.01772 -0.57812,-2.02929 -0.86916,-3.04271 -0.12303,-0.42697 -0.39753,-1.00654 -0.37835,-1.45157 0.0119,-0.29091 0.37901,-0.36128 0.59597,-0.45753 0.55166,-0.24487 1.08083,-0.59425 1.52136,-1.00727 1.08743,-1.01996 1.63711,-2.53338 1.91823,-3.96279 0.27053,-1.37365 0.35454,-2.83488 0.25863,-4.23334 -0.0741,-1.08386 -0.23284,-2.21852 -0.61781,-3.24114 -0.27384,-0.72898 -0.61581,-1.42812 -1.08942,-2.05052 -2.75299,-3.6189 -8.24045,-3.04271 -12.24359,-3.04271 h -3.70417 m 22.88646,0 v 35.71875 h 4.23333 v -24.34167 h 0.0662 l 2.6842,6.41615 4.56406,10.84791 2.08822,4.96094 0.89628,2.01064 0.87974,0.10603 h 2.3151 v -35.71875 h -4.16718 v 23.61406 c -1.19923,-2.10707 -2.00025,-4.57663 -2.9382,-6.81302 -1.45719,-3.47146 -2.96466,-6.92229 -4.44236,-10.3849 l -1.94601,-4.56406 c -0.1938,-0.45593 -0.42531,-1.49579 -0.83608,-1.7841 -0.22357,-0.15676 -0.6899,-0.068 -0.94985,-0.068 h -2.4474 m -38.49687,3.59081 c 2.35016,-0.28865 4.63351,0.424 5.32936,2.89148 0.63302,2.24294 0.35918,4.77269 0.35918,7.0776 v 12.43542 c 0,2.61574 -0.55298,5.72678 -3.63802,6.13245 -2.18348,0.28714 -4.53232,-0.19063 -5.35186,-2.49443 -0.81492,-2.28904 -0.46898,-5.02172 -0.46898,-7.40833 0,-4.49686 -0.0529,-8.99729 0,-13.49375 0.0298,-2.50987 1.05503,-4.807 3.77032,-5.14044 m 20.57135,-0.0189 c 1.9394,0 4.36959,-0.33695 6.08542,0.77385 2.19339,1.41999 2.12658,5.31018 1.61065,7.56053 -0.17,0.74222 -0.4617,1.47201 -0.9783,2.04457 -1.1893,1.31762 -3.34169,1.4605 -4.99798,1.46116 -0.33734,1.3e-4 -1.42875,0.17535 -1.65166,-0.10603 -0.14618,-0.18402 -0.0681,-0.59988 -0.0681,-0.82001 v -2.24896 -8.66511 m -80.16875,28.575 v -28.4427 c 2.162969,0 5.320771,-0.52043 6.982354,1.20956 1.408907,1.46663 1.352021,4.10082 1.352021,6.00033 0,4.80199 0.267229,9.69817 -0.06019,14.48594 -0.125677,1.83495 -0.006,4.03099 -1.340115,5.48911 -1.613297,1.76213 -4.796234,1.25776 -6.934068,1.25776 m 33.337498,-17.26406 v -11.17864 c 2.0783,0 5.1607,-0.40451 6.94531,0.8923 0.7792,0.56635 1.11588,1.36772 1.30903,2.2827 0.46368,2.19359 0.42598,5.85992 -1.63976,7.25222 -1.78263,1.20148 -4.58192,0.75142 -6.61458,0.75142 M 43.232205,137.7513 c 0.310885,0.91903 0.390922,1.95706 0.569516,2.91042 0.351234,1.87371 0.70776,3.74636 1.045765,5.62239 0.438547,2.4302 1.254787,5.00837 1.361281,7.47448 h -5.953125 l 2.02274,-10.98021 0.595312,-3.24114 0.358511,-1.78594 m 174.955735,20.50521 c -0.74745,0.21047 -1.49953,0.40263 -2.24896,0.6053 -0.22556,0.061 -0.71107,0.1051 -0.85725,0.30275 -0.13891,0.18798 -0.006,0.72317 0.0258,0.94403 0.12964,0.9017 0.3208,1.80539 0.68064,2.64583 1.47769,3.45295 5.55029,4.78632 8.9482,3.27826 3.5904,-1.59352 4.00712,-6.38023 2.2946,-9.49596 -1.34077,-2.4392 -3.68564,-4.13934 -5.73418,-5.94288 -1.23759,-1.08929 -2.76754,-2.14418 -2.96532,-3.91285 -0.086,-0.76842 -0.0919,-1.62798 0.32743,-2.31511 0.8116,-1.32993 2.89123,-1.62924 4.15925,-0.7868 1.32622,0.88139 1.65629,2.74168 1.71979,4.22639 0.73422,-0.0989 1.46976,-0.35898 2.18281,-0.55722 0.21299,-0.0591 0.6522,-0.0968 0.7911,-0.28469 0.19844,-0.26868 -0.082,-1.10047 -0.14287,-1.40705 -0.28641,-1.4396 -0.84402,-2.89951 -1.97115,-3.89044 -1.80115,-1.5832 -5.16731,-1.67659 -7.27604,-0.71913 -3.41312,1.54953 -3.87614,6.52661 -2.00422,9.43821 1.57692,2.45362 4.45823,4.10104 6.50214,6.15157 1.06164,1.06514 1.93873,2.22488 2.04457,3.77031 0.0569,0.83132 -0.0417,1.75478 -0.54306,2.44713 -0.85659,1.18282 -2.85419,1.38093 -4.01505,0.53426 -1.47307,-1.07467 -1.84481,-3.32634 -1.91823,-5.03191 m 39.02604,-17.83133 c -0.91281,0.12138 -1.81173,0.26987 -2.64583,0.68692 -3.94428,1.97247 -3.3073,7.40086 -3.3073,11.05899 v 2.84427 c 0,3.69544 -0.51527,9.20459 3.63803,10.98861 0.60721,0.26095 1.2647,0.41407 1.91822,0.50211 1.00211,0.13494 2.03994,0.12773 3.04271,-2.6e-4 2.77284,-0.35388 4.53628,-2.3542 5.13094,-5.00817 0.50866,-2.26853 0.35917,-4.6353 0.35917,-6.94531 0,-3.10601 0.41341,-6.57357 -0.44384,-9.59115 -0.49213,-1.73149 -1.50548,-3.35875 -3.26033,-4.03059 -0.57084,-0.21861 -1.17872,-0.3814 -1.78594,-0.457 -0.84865,-0.1057 -1.79453,-0.1616 -2.64583,-0.0484 m -342.304694,0.17039 v 2.64583 h 4.365625 v 23.0849 h 3.571875 v -23.0849 h 4.233334 v -2.64583 h -12.170834 m 14.618229,0 v 25.73073 h 3.571875 v -12.03854 h 6.614584 v 12.03854 h 3.571875 v -25.73073 h -3.571875 v 11.1125 h -6.614584 v -11.1125 h -3.571875 m 21.828126,0 -1.256573,6.01927 -2.674077,12.63385 -1.493309,7.07761 h 3.373438 l 1.190625,-6.48229 h 5.291667 l 1.124479,6.48229 h 3.439583 c -1.279194,-4.55031 -2.007195,-9.33252 -2.990519,-13.95677 l -1.653646,-7.73906 c -0.283699,-1.3343 -0.671182,-2.68182 -0.845939,-4.0349 h -3.505729 m 9.061979,0 v 2.64583 h 4.365625 v 23.0849 h 3.571875 v -23.0849 h 4.233334 v -2.64583 H -39.58238 m 270.80105,0 -0.46302,25.73073 h 2.91041 l 0.26459,-18.58698 h 0.0661 c 0.0721,1.66079 0.74877,3.47431 1.13242,5.09323 0.6727,2.84023 1.2958,5.69251 1.9685,8.53281 0.38629,1.62818 0.9095,3.30346 1.13242,4.96094 h 2.05052 l 3.13663,-13.49375 1.16285,-5.09323 h 0.0661 l 0.26458,18.58698 h 2.91042 l -0.33073,-15.34583 -0.13163,-7.01146 -0.0668,-3.37344 h -2.51354 l -0.91678,0.10603 -0.40613,1.61376 -0.85196,3.90261 -2.08624,9.525 -1.22899,5.68854 h -0.0661 c -0.16272,-2.04404 -0.88238,-4.14556 -1.30902,-6.15157 -1.0418,-4.89889 -2.17752,-9.77933 -3.18889,-14.68437 h -3.50573 m 37.63698,0 v 25.73073 h 3.57187 v -6.08542 l 0.0278,-2.91041 1.62587,-3.04271 c 1.45454,2.72805 2.43615,5.85959 3.5851,8.73125 0.30956,0.77437 0.62839,1.54609 0.95118,2.3151 0.11046,0.26425 0.20174,0.75836 0.45244,0.92419 0.23415,0.15498 0.69585,0.068 0.9644,0.068 h 2.4474 l -1.45455,-3.63802 -2.84493,-6.94531 -1.08479,-2.64584 -0.4326,-1.16258 0.44186,-1.08638 0.91546,-2.05052 3.6658,-8.20208 h -3.37344 l -1.13903,2.38125 -2.97855,6.15156 -1.70325,3.57188 h -0.0661 v -12.10469 h -3.57187 m 15.67656,0 v 25.73073 h 10.05417 v -2.57969 h -6.4823 v -6.94531 -1.71979 l 0.10584,-0.68772 1.34937,-0.10603 h 3.77032 v -2.51354 h -5.22553 v -6.28386 c 0,-0.4572 -0.22754,-1.80922 0.10584,-2.14292 0.27715,-0.27702 1.24354,-0.10604 1.61396,-0.10604 h 4.69635 v -2.64583 h -9.98802 m -26.92136,2.5988 c 1.70789,-0.22192 3.35757,0.30877 3.853,2.09755 0.44252,1.59696 0.24805,3.38753 0.24805,5.02709 v 8.79739 c 0,1.85394 -0.24276,4.30431 -2.51355,4.6111 -1.42544,0.19261 -3.11943,0.0271 -3.81463,-1.4361 -0.71371,-1.50118 -0.48484,-3.4159 -0.48484,-5.02708 v -9.65729 c 0,-1.99767 0.37901,-4.10944 2.71197,-4.41266 m -304.469272,2.56057 1.23104,6.54844 0.885627,4.96094 h -4.233333 c 0.107619,-2.50746 0.91526,-5.1355 1.361016,-7.60677 0.214181,-1.18778 0.234884,-2.81894 0.75565,-3.90261 m 165.298442,16.99948 v -13.49375 c 2.24499,0 4.96887,-0.34177 6.87917,1.09234 2.37397,1.78203 2.37066,5.86349 1.85208,8.49881 -0.20307,1.03108 -0.54504,2.18506 -1.38906,2.87946 -1.88185,1.54735 -5.08397,1.02314 -7.34219,1.02314 z"
       id="path1051" />
  </g>
</svg>
