<?xml version="1.0" encoding="UTF-8" standalone="no"?>
<!-- Created with Inkscape (http://www.inkscape.org/) -->

<svg
   width="152.2854mm"
   height="153.49077mm"
   viewBox="0 0 152.2854 153.49077"
   version="1.1"
   id="svg5"
   inkscape:version="1.1.1 (c3084ef, 2021-09-22)"
   sodipodi:docname="tee.svg"
   xmlns:inkscape="http://www.inkscape.org/namespaces/inkscape"
   xmlns:sodipodi="http://sodipodi.sourceforge.net/DTD/sodipodi-0.dtd"
   xmlns="http://www.w3.org/2000/svg"
   xmlns:svg="http://www.w3.org/2000/svg">
  <sodipodi:namedview
     id="namedview7"
     pagecolor="#ffffff"
     bordercolor="#666666"
     borderopacity="1.0"
     inkscape:pageshadow="2"
     inkscape:pageopacity="0.0"
     inkscape:pagecheckerboard="0"
     inkscape:document-units="mm"
     showgrid="false"
     inkscape:zoom="0.51313131"
     inkscape:cx="308.8878"
     inkscape:cy="348.83858"
     inkscape:window-width="1312"
     inkscape:window-height="798"
     inkscape:window-x="0"
     inkscape:window-y="25"
     inkscape:window-maximized="0"
     inkscape:current-layer="layer1" />
  <defs
     id="defs2" />
  <g
     inkscape:label="Layer 1"
     inkscape:groupmode="layer"
     id="layer1"
     transform="translate(-23.439765,-56.008869)">
    <path
       style="fill:#000000;stroke:none;stroke-width:0.0846667"
       d="m 53.526377,126.60421 -0.08467,0.254 h 0.08467 l 0.169333,-0.16933 -0.08467,0.254 h 0.08467 l 1.185334,-0.254 h 0.08467 l 0.254,-0.254 h 0.08467 v 0.254 h 0.08467 v -0.33867 l 0.423333,-0.33867 c -0.255947,2.3981 0.01761,4.86961 -0.08797,7.28134 -0.346879,7.92056 -0.107442,15.86653 0.0867,23.79133 0.07053,2.87867 -0.05241,5.75564 0.0034,8.636 0.12556,6.4897 0.356954,12.90489 -0.27051,19.38866 -0.41546,4.29345 -0.40894,8.55388 -0.40894,12.86934 0,1.55448 -0.147998,3.10642 -0.106596,4.65666 0.03116,1.1684 0.149098,2.66531 -0.01558,3.81 -0.0696,0.48345 -0.445686,1.57226 -0.14605,1.99898 0.27669,0.3937 0.9409,0.4081 1.36889,0.46736 1.259671,0.17526 2.553123,-0.0466 3.81,-0.16594 2.080853,-0.19812 4.181687,0.15917 6.265333,0.0669 0.682752,-0.0305 1.35145,-0.25484 2.032,-0.32088 1.937597,-0.18796 3.894328,-0.18373 5.842,-0.18373 2.980944,0 5.997617,0.20489 8.974667,0.33528 2.256451,0.0991 4.518321,0.0263 6.773333,0.18034 1.331552,0.0914 2.672672,0.62992 3.979333,0.66802 3.502914,0.10329 7.008703,-0.77385 10.498663,-0.92625 5.24849,-0.2303 10.50544,0.28702 15.748,0.28702 1.65608,0 3.43154,0.022 5.08,-0.13547 0.71459,-0.0686 1.40462,-0.34967 2.11667,-0.39116 1.62052,-0.094 3.21733,0.11091 4.826,0.15071 2.41131,0.0584 4.86495,8.4e-4 7.28133,8.4e-4 1.01262,0 2.03624,0.18034 3.048,0.0601 0.34798,-0.0406 0.81873,-0.0161 1.04987,-0.32682 0.29464,-0.39793 -0.0389,-0.98128 -0.0161,-1.42663 0.0762,-1.49521 0.22606,-2.99381 0.32851,-4.48733 0.25823,-3.7719 0.17103,-7.56751 0.0779,-11.34534 -0.061,-2.51121 0.094,-5.03089 -0.0779,-7.53533 -0.094,-1.37414 0.0491,-2.77029 -0.011,-4.14866 -0.4064,-9.28878 0.11346,-18.56486 0.003,-27.85534 -0.0381,-3.20802 -0.20574,-6.44313 -0.16933,-9.652 0.033,-2.79484 0.20235,-5.58122 0.16933,-8.382 -0.0406,-3.35474 -0.43265,-6.63727 0,-9.99066 1.2319,0.355 2.34188,1.23046 3.47133,1.82151 1.36652,0.7151 3.29777,1.38989 4.318,2.58115 1.05664,0.0647 2.40623,0.99357 3.38667,1.41554 0.39878,0.17171 1.06256,0.54323 1.49182,0.27543 0.49954,-0.31099 0.78825,-1.2816 1.08628,-1.77563 0.83227,-1.37999 1.64761,-2.75929 2.59926,-4.064 1.60105,-2.19423 3.16738,-4.43002 4.90474,-6.51934 1.88976,-2.27211 3.96494,-4.37218 5.8183,-6.68866 1.1049,-1.38134 2.3351,-2.64008 3.6576,-3.81424 0.34882,-0.30954 1.29116,-0.87621 1.10066,-1.4351 -0.18118,-0.53416 -0.73236,-1.07569 -1.06934,-1.524 -0.83735,-1.11523 -1.70434,-2.20912 -2.57132,-3.302 -3.21988,-4.061372 -6.67258,-7.760882 -10.23705,-11.513393 -3.54669,-3.733969 -7.3152,-7.249922 -10.74589,-11.092603 -1.37838,-1.542966 -2.67547,-3.153326 -4.0005,-4.741333 -0.43095,-0.516298 -0.79841,-1.276943 -1.2827,-1.713569 -1.90754,-1.721866 -4.51866,-3.038856 -6.75386,-4.285911 -4.70239,-2.623397 -9.50214,-4.823714 -14.478,-6.870785 -0.57912,-0.238421 -1.24291,-0.420116 -1.778,-0.747183 -0.60875,-0.37211 -1.00838,-0.862246 -1.69333,-1.13047 -0.95166,-0.372787 -1.96173,-0.268562 -2.87867,-0.616373 -0.80433,-0.304952 -1.51638,-1.004155 -2.36305,-1.178441 -0.68156,-0.140293 -1.48928,0.396832 -2.03962,0.736854 -0.71966,0.44472 -1.55448,0.831308 -2.37066,1.060754 -3.5941,1.010666 -7.09253,1.613154 -10.83734,1.449155 -4.072886,-0.178393 -8.147131,0.03463 -12.107329,-1.158325 -1.236896,-0.372618 -2.190073,-1.045972 -3.217334,-1.800529 -0.456438,-0.335314 -0.985774,-0.872693 -1.608666,-0.719735 -0.55372,0.135975 -1.070356,0.532308 -1.608667,0.734238 -0.649309,0.243569 -1.386163,0.225205 -2.032,0.491473 -1.51892,0.626279 -2.837265,1.586653 -4.402667,2.129282 -8.084057,2.802213 -16.807518,5.655225 -23.44022,11.302577 -0.456268,0.388535 -0.841163,1.149434 -1.217676,1.639654 -0.928708,1.20904 -1.882563,2.404872 -2.882646,3.556 -2.105914,2.424091 -3.935052,5.028184 -5.940806,7.535333 -2.093468,2.616793 -4.364566,5.092108 -6.464723,7.704667 -2.867321,3.566922 -5.837682,7.05087 -8.744373,10.583333 -0.833205,1.01261 -1.643888,2.03954 -2.483273,3.048 -0.284057,0.34138 -0.901446,0.82465 -1.001946,1.26238 -0.06485,0.28211 0.253069,0.45314 0.444754,0.5864 0.537464,0.3738 1.028531,0.80755 1.523577,1.2352 2.063242,1.78241 3.601212,4.04038 5.404612,6.06002 3.770545,4.22258 7.560987,8.50891 11.698054,12.36345 0.954024,0.88883 1.660906,1.80348 2.399538,2.87655 0.241554,0.35086 0.611632,1.07484 1.075098,1.14376 0.61214,0.0908 1.480566,-0.53484 2.028698,-0.76945 1.94564,-0.83253 3.673856,-1.87215 5.503333,-2.91431 m 2.032,-0.59267 -0.08467,0.0847 0.08467,-0.0847 m -1.439333,0.0847 -0.08467,0.0847 0.08467,-0.0847 m 104.393995,0.0847 -0.0847,0.0847 0.0847,-0.0847 m -104.647995,0.16933 -0.338667,0.254 v -0.0847 l 0.338667,-0.16933 m 1.693333,0.16933 0.08467,0.0847 -0.08467,-0.0847 m -1.608667,0.16934 -0.08467,0.0847 z"
       id="path868" />
  </g>
</svg>
