<?xml version="1.0" encoding="UTF-8" standalone="no"?>
<!-- Created with Inkscape (http://www.inkscape.org/) -->

<svg
   width="7.1700721mm"
   height="36.783978mm"
   viewBox="0 0 7.1700721 36.783978"
   version="1.1"
   id="svg5"
   inkscape:version="1.1.1 (c3084ef, 2021-09-22)"
   sodipodi:docname="smoke-non-gradient.svg"
   xmlns:inkscape="http://www.inkscape.org/namespaces/inkscape"
   xmlns:sodipodi="http://sodipodi.sourceforge.net/DTD/sodipodi-0.dtd"
   xmlns="http://www.w3.org/2000/svg"
   xmlns:svg="http://www.w3.org/2000/svg">
  <sodipodi:namedview
     id="namedview7"
     pagecolor="#ffffff"
     bordercolor="#666666"
     borderopacity="1.0"
     inkscape:pageshadow="2"
     inkscape:pageopacity="0.0"
     inkscape:pagecheckerboard="0"
     inkscape:document-units="mm"
     showgrid="false"
     inkscape:zoom="2.8126558"
     inkscape:cx="-5.8663418"
     inkscape:cy="72.17378"
     inkscape:window-width="1312"
     inkscape:window-height="796"
     inkscape:window-x="0"
     inkscape:window-y="25"
     inkscape:window-maximized="0"
     inkscape:current-layer="layer1" />
  <defs
     id="defs2" />
  <g
     inkscape:label="Layer 1"
     inkscape:groupmode="layer"
     id="layer1"
     transform="translate(-126.9841,-55.147223)">
    <path
       style="fill:#265424;stroke:none;stroke-width:0.0846667"
       d="m 127.89258,56.371203 c 0.0135,0.635457 0.31718,1.868577 1.016,1.947333 0,0.738268 -0.0608,1.817404 0.68948,2.260329 0.57452,0.339175 1.6219,0.194573 2.27385,0.195005 0.17783,1.03339 0.55765,2.546688 -0.67733,3.132666 -0.0491,-0.722291 0.007,-1.247495 0.17854,-1.947265 0.0456,-0.185505 0.0823,-0.440182 -0.12935,-0.540013 -0.50889,-0.24003 -1.12523,1.777264 -1.30064,2.148612 -1.15564,2.446612 -2.51811,4.720505 -2.87272,7.450666 -0.23293,1.793324 0.0246,4.117678 0.54459,5.841999 0.38124,1.264243 0.97816,2.427648 1.29031,3.725334 0.29637,1.232069 0.34193,2.548212 0.34193,3.809999 0,1.850306 0.0252,3.837348 -0.1464,5.672667 -0.0614,0.656251 -0.29744,1.81466 0.56974,1.862666 0.68354,-3.313514 1.55818,-6.599512 0.87502,-9.990666 -0.2973,-1.47574 -0.82995,-2.85352 -1.41869,-4.233333 -0.45269,-1.060873 -1.04095,-2.283629 -0.95283,-3.471333 0.17924,-2.415455 1.46846,-4.288197 2.98574,-6.096 1.35536,-1.614847 3.03729,-3.580045 2.99352,-5.841999 -0.016,-0.825077 -0.3317,-1.729503 -1.01176,-2.234066 -0.312,-0.231478 -0.79126,-0.284412 -1.04082,-0.583514 -0.25681,-0.30778 -0.35698,-0.868189 -0.48285,-1.24642 -0.75701,0.02517 -0.51272,0.615967 -0.508,1.185333 -0.38009,-0.09049 -1.15112,0.04122 -1.29862,-0.427905 -0.16033,-0.509964 1.60022,-0.892776 0.53577,-1.288881 -0.10707,-0.03984 -0.22628,-0.04574 -0.33782,-0.06121 0.2514,-0.584166 0.55028,-1.318107 0.64912,-1.947011 0.0439,-0.279375 -0.0794,-0.701525 -0.44686,-0.489442 -0.6011,0.346931 -0.45965,1.394571 -1.3139,1.565419 -0.2953,0.05906 -0.63583,-0.386723 -1.00502,-0.398966 m 2.286,-0.338666 c -0.22918,1.33184 -1.73447,3.783931 0.67733,3.809678 0.31836,0.0034 0.61883,-0.02633 0.93133,-0.08435 l 1.524,1.016 c -0.35845,-0.1746 -0.79852,-0.56438 -1.18533,-0.338667 -0.70978,-0.238159 -2.3069,-0.300795 -2.73115,-0.935973 -0.23158,-0.346702 -0.1131,-0.791743 -0.16515,-1.180694 -0.0449,-0.335169 -0.12061,-0.525195 0.0176,-0.846666 h 0.0847 v 0.423333 l 0.84667,-1.862666 m 1.43933,3.301999 0.0847,0.338667 h -0.0847 v -0.338667 m 0.59267,1.185334 -0.0847,0.08467 0.0847,-0.08467 m -2.286,4.063999 -0.0847,0.08467 0.0847,-0.08467 m -0.0847,0.169334 -0.0847,0.08467 0.0847,-0.08467 m -0.0847,0.169333 -0.93133,2.878667 0.33867,-0.08467 -0.0847,0.254 1.778,-2.032 -1.60867,2.794 h 0.0847 l 0.16933,-0.169333 0.0847,0.338666 1.27,-1.016 v 0.08467 c -1.82925,1.670643 -3.40926,4.768172 -2.93707,7.281333 0.42012,2.236046 1.7724,4.187782 2.22171,6.434666 0.44674,2.23393 -0.24893,3.930989 -0.53014,6.096 -0.13257,1.020657 0.13221,2.034116 -0.10917,3.048 h -0.0847 c 0.002,-3.167295 0.45492,-6.403763 -0.0359,-9.567333 -0.28693,-1.849374 -1.16006,-3.528737 -1.59396,-5.334 -0.67614,-2.813134 -0.52747,-5.804492 0.61396,-8.466666 0.34565,-0.806196 0.72719,-1.919224 1.3546,-2.54 m -0.67733,3.894667 0.0847,0.08467 -0.0847,-0.08467 m -0.42333,0.762 -0.0847,0.423333 0.254,-0.423333 h -0.16933 m 1.778,16.509999 -0.59267,2.963333 h -0.0847 c 0.0733,-0.929217 0.23423,-2.135971 0.67734,-2.963333 z"
       id="path573" />
  </g>
</svg>
