<?xml version="1.0" encoding="UTF-8" standalone="no"?>
<!-- Created with Inkscape (http://www.inkscape.org/) -->

<svg
   version="1.1"
   id="svg824"
   width="98.821594"
   height="10.641802"
   viewBox="0 0 98.821594 10.641802"
   sodipodi:docname="i_am_that_smoke_logo_2.png.svg"
   inkscape:version="1.1.1 (c3084ef, 2021-09-22)"
   xmlns:inkscape="http://www.inkscape.org/namespaces/inkscape"
   xmlns:sodipodi="http://sodipodi.sourceforge.net/DTD/sodipodi-0.dtd"
   xmlns="http://www.w3.org/2000/svg"
   xmlns:svg="http://www.w3.org/2000/svg">
  <defs
     id="defs828" />
  <sodipodi:namedview
     id="namedview826"
     pagecolor="#ffffff"
     bordercolor="#666666"
     borderopacity="1.0"
     inkscape:pageshadow="2"
     inkscape:pageopacity="0.0"
     inkscape:pagecheckerboard="0"
     showgrid="false"
     inkscape:zoom="15.064406"
     inkscape:cx="7.9326061"
     inkscape:cy="-1.5931594"
     inkscape:window-width="1312"
     inkscape:window-height="798"
     inkscape:window-x="0"
     inkscape:window-y="25"
     inkscape:window-maximized="0"
     inkscape:current-layer="g830" />
  <g
     inkscape:groupmode="layer"
     inkscape:label="Image"
     id="g830"
     transform="translate(0.07159561,-0.25)">
    <path
       style="fill:#cc0000;stroke:none;stroke-width:0.24944882;fill-opacity:1;stroke-miterlimit:100;stroke-dasharray:none"
       d="m 31.75,0.25 c -2.14275,2.086395 -7.83955,1 -10.75,1 V 4 C 21.687675,4 22.891925,3.76615 23.5,4.125 24.62235,4.78735 24,8.805975 24,10 L 26.45825,7.5 26.625,4.5 29.25,3.25 V 9 H 32 V 6.5 h 3 V 10 l 2.5,-2 v 1 h 2.75 V 7.5 H 43.5 V 10 C 46.2405,8.4134 46.2185,6.767975 46,4 h 2.25 v 6 C 51.167,9.15565 51,6.43915 51,4 52.889,4 54.668,3.260625 55.25,1.25 h -7.5 C 46.47225,1.25 45.29175,0.9157725 45.25,2.5 43.0965,1.02652 39.17675,0.51892 38,3.5 H 37.75 V 1.25 C 35.394,1.25 35,1.3229675 35,3.75 H 32 L 31.75,0.25 M 83,0.25 80.5,3.5 h -0.25 c -0.85975,-2.9703075 -6.639,-2.97458 -7.5,0 H 72.5 V 1.25 c -1.93325,0 -3.19975,0.1858225 -4.25,2 H 68 C 67.61,2.57645 66.985,1.7424625 66.25,1.375 65.585,1.04251 64.47675,1.25 63.75,1.25 61.5935,1.25 57.4645,0.4795825 56.04175,2.5 55.007,3.9694 56.5525,4.9893 56.5,6.25 56.4635,7.1285 54.69625,8.229 54.25,9 h 7.5 L 64,8 66.75,10 V 5.75 c 1.3105,1.310475 1.6895,1.31045 3,0 V 9 H 72.5 V 6.75 h 0.25 c 0.8765,3.028075 6.38675,3.070425 7.5,0.25 h 0.25 v 2 h 2.75 V 6.5 c 2.73275,0 3.25,0.8334 3.25,3.5 L 88.75,8 V 9 H 97.5 V 6.25 h -1 l 2.25,-5 H 86.5 c 0,2.449975 -1.09875,2.5 -3.25,2.5 L 83,0.25 M 3.25,1.5 c -2.3339325,2.33395 -2,4.092325 -2,7.25 H 3.5 L 3.25,1.5 m 28,0.5 V 4.5 H 36 V 2.25 h 1 c 0,1.775825 0.6835,4.99895 -1,6 0,-3.2024 -2.1125,-2.5 -4.75,-2.5 v 2.5 H 30 C 30,6.23685 29.28925,3.1351 31.25,2 M 82.5,2 v 2.5 c 2.17375,0 4.259,0.415 4.75,-2.25 h 1 c 0,1.14925 -0.725,1.949625 -0.79175,2.91665 C 87.36475,6.522725 89.22125,7.0779 87.25,8.25 87.027,5.424225 84.696,5.75 82.5,5.75 v 2.5 H 81.25 C 81.25,6.23685 80.53925,3.1351 82.5,2 M 29,2.25 c -0.80775,1.35845 -2.46875,0.38815 -3.125,1.5 -0.910775,1.543275 0.78625,3.363625 -1.125,4.5 0,-3.14245 0.655,-5 -3,-5 v -1 H 29 m 15.25,6 V 6.75 H 39.5 v 1.5 H 38.25 C 38.25,7.0614 38.04425,5.6565 38.33325,4.5 39.91,-1.806885 49.2005,5.306425 44.25,8.25 m 9.25,-6 c -0.75175,1.2644 -1.918,1 -3.25,1 0,1.816425 0.526,3.971875 -1.25,5 v -5 h -2.75 v -1 h 7.25 m 10.25,0 c -1.3735,2.30985 -4.8765,-0.309875 -6.25,2 1.56475,0.45295 3.55525,-0.223275 5,0.54165 1.38925,0.735425 1.25475,2.84515 -0.25,3.375 C 60.54175,8.768125 57.811,8.25 56,8.25 56.91525,6.669075 58.371,7 60,7 60.52825,7 61.90375,7.230925 62.08325,6.5 62.3775,5.30185 57.725,5.9802 57.04175,5.41665 56.19625,4.719625 56.255,2.9018 57.25,2.375 58.7185,1.5975025 62.0855,2.25 63.75,2.25 m 8,0 v 6 H 70.5 V 3.75 L 68.25,6 H 68 L 66,4 V 8.25 C 63.977,7.664425 64.75,3.979225 64.75,2.25 L 68.25,4 71.75,2.25 M 75,2.2916575 C 76.222,1.9691775 78.346,2.0667725 79.25,3 80.84775,4.649175 79.93075,7.621425 77.75,8.16665 76.32,8.524175 74.48975,8.250975 73.58325,7 72.458,5.44705 72.98775,2.82265 75,2.2916575 M 96.75,2.25 c -1.001,1.6836 -4.22425,1 -6,1 V 4.5 h 5 v 1.25 h -5 V 7 h 6 V 8.25 H 91.5 L 89.625,7.95835 89.5,2.25 h 7.25 m -92,6.5 h 2.5 C 7.4054,7.273775 8.541775,7.5 9.75,7.5 v 2.25 l 2,-1.58335 2.5,1.58335 v -3.5 l 1,1 h 0.25 l 1.25,-1 v 2.5 H 19 V 2.5 L 16.75,2.625 15.5,3.5 14.25,2.625 11.75,2.5 V 3.75 C 10.1293,2.171935 6.555175,1.6239025 5.25,4 4.525275,5.3194 4.75,7.287525 4.75,8.75 m -2,-5.5 V 8 H 2 C 2,6.580875 1.474635,4.075225 2.75,3.25 M 10.5,8 V 6.75 h -4 V 8 H 5.75 C 5.75,6.99915 5.5331,5.71625 5.791675,4.75 6.97935,0.3117675 14.723875,5.488525 10.5,8 M 15.25,5 H 15.5 C 16.16395,3.853175 16.90935,3.25 18.25,3.25 V 8 H 17.5 V 4.25 l -2,2 H 15.25 L 13.5,4.5 V 8 c -1.527175,-0.908025 -1,-3.1543 -1,-4.75 1.34065,0 2.08605,0.603175 2.75,1.75 M 39.5,5.5 h 4.75 C 44.016,2.535825 39.58075,2.4352425 39.5,5.5 M 64,3.25 V 5 L 63,4.25 V 4 L 64,3.25 M 75.5,3.33335 C 72.523,4.3816 75.1475,7.8596 77.75,6.91665 80.37175,5.966725 77.932,2.47699 75.5,3.33335 M 6.5,6 h 4 C 10.428225,3.272975 6.571775,3.272975 6.5,6 M 43.25,4.5 V 4.75 H 40.5 C 41.184,3.692875 42.26075,3.901225 43.25,4.5 M 76,4.04165 c 1.47425,-0.311475 3.06575,1.579225 1.25,2.1667 C 75.44025,6.793825 73.92275,4.480525 76,4.04165 M 88.75,4.5 V 5.75 H 88.5 L 88.75,4.5 M 9.5,5 v 0.25 h -2 C 8.046025,4.579875 8.72905,4.675375 9.5,5 Z"
       id="path1514" />
    <rect
       style="fill:#000000;fill-opacity:0;fill-rule:evenodd;stroke:#ffffff;stroke-width:0.835276;stroke-linecap:round;stroke-linejoin:round;stroke-miterlimit:100;stroke-dasharray:none;stroke-opacity:1"
       id="rect1636"
       width="19.487936"
       height="9.7910767"
       x="0.34604219"
       y="0.68308783"
       ry="1.8291024" />
  </g>
</svg>
