<?xml version="1.0" encoding="UTF-8" standalone="no"?>
<!-- Created with Inkscape (http://www.inkscape.org/) -->

<svg
   width="25.79961mm"
   height="2.5799mm"
   viewBox="0 0 25.79961 2.5799"
   version="1.1"
   id="svg914"
   inkscape:version="1.1.1 (c3084ef, 2021-09-22)"
   sodipodi:docname="i_am_that_smoke_logo_2.svg"
   xmlns:inkscape="http://www.inkscape.org/namespaces/inkscape"
   xmlns:sodipodi="http://sodipodi.sourceforge.net/DTD/sodipodi-0.dtd"
   xmlns="http://www.w3.org/2000/svg"
   xmlns:svg="http://www.w3.org/2000/svg">
  <sodipodi:namedview
     id="namedview916"
     pagecolor="#ffffff"
     bordercolor="#666666"
     borderopacity="1.0"
     inkscape:pageshadow="2"
     inkscape:pageopacity="0.0"
     inkscape:pagecheckerboard="0"
     inkscape:document-units="mm"
     showgrid="false"
     inkscape:zoom="11.089232"
     inkscape:cx="17.269005"
     inkscape:cy="0.090177574"
     inkscape:window-width="1312"
     inkscape:window-height="798"
     inkscape:window-x="0"
     inkscape:window-y="25"
     inkscape:window-maximized="0"
     inkscape:current-layer="layer1" />
  <defs
     id="defs911" />
  <g
     inkscape:label="Layer 1"
     inkscape:groupmode="layer"
     id="layer1"
     transform="translate(-79.212321,-111.42527)">
    <path
       style="fill:#d01818;stroke:none;stroke-width:0.0661458"
       d="m 87.284859,111.42527 c -0.637249,0.53891 -2.039772,0.26458 -2.844271,0.26458 v 0.7276 c 1.028376,1.1e-4 0.79375,0.76149 0.79375,1.5875 l 0.640424,-0.7276 0.08903,-0.70658 0.659606,-0.35175 v 1.52135 h 0.727605 v -0.66146 h 0.79375 v 0.92604 l 0.661458,-0.52916 v 0.26458 h 0.727604 v -0.39688 h 0.859896 v 0.66146 c 0.648427,-0.45677 0.755914,-0.84031 0.661458,-1.5875 h 0.595313 v 1.5875 c 0.723503,-0.33739 0.727604,-0.88756 0.727604,-1.5875 0.530026,-0.002 0.895416,-0.23642 1.124479,-0.7276 h -1.918229 c -0.33364,2e-5 -0.661789,-0.0635 -0.727604,0.33073 -0.618662,-0.40253 -1.523207,-0.47904 -1.918229,0.26458 h -0.06615 v -0.59531 c -0.575271,6e-5 -0.727141,0.0651 -0.727604,0.66146 h -0.79375 l -0.06615,-0.92604 m 13.559891,0 -0.66145,0.85989 h -0.0662 c -0.36109,-0.76722 -1.617596,-0.76796 -1.984375,0 h -0.06615 v -0.59531 c -0.513159,3.4e-4 -0.815247,0.0942 -1.124479,0.52917 h -0.06615 c -0.126074,-0.17833 -0.261672,-0.36034 -0.463087,-0.46119 -0.501451,-0.25116 -2.332169,-0.22577 -2.672027,0.26662 -0.250163,0.36246 0.06912,0.63614 0.02977,0.98832 -0.02983,0.26704 -0.382389,0.51421 -0.532672,0.7276 l 1.918229,-0.006 0.727604,-0.17977 0.661458,0.45057 v -1.12448 c 0.319749,0.29185 0.474001,0.29185 0.79375,0 v 0.8599 h 0.727604 v -0.59531 h 0.06615 c 0.359503,0.76389 1.575263,0.81377 1.984375,0.0661 h 0.0662 v 0.52917 h 0.7276 v -0.66146 c 0.68732,5.2e-4 0.85943,0.25894 0.8599,0.92604 l 0.59531,-0.52916 v 0.26458 h 2.3151 v -0.7276 h -0.26458 c 4.6e-4,-0.62344 0.3517,-0.80055 0.59531,-1.32292 h -3.24114 c -0.0146,0.60509 -0.32213,0.6614 -0.8599,0.66146 l -0.0661,-0.92604 m -21.100516,0.33072 c -0.602238,0.60438 -0.529167,1.11008 -0.529167,1.91823 h 0.595313 l -0.06615,-1.91823 m 7.408333,0.1323 v 0.66145 h 1.256771 v -0.59531 h 0.264583 c 0,0.50421 0.157097,1.23628 -0.264583,1.5875 -0.0029,-0.81731 -0.606094,-0.66146 -1.256771,-0.66146 v 0.66146 h -0.330729 c 0,-0.55853 -0.160205,-1.2796 0.330729,-1.65364 m 13.559897,0 v 0.66145 c 0.57408,0 1.08327,0.0688 1.25677,-0.59531 h 0.26459 c -0.003,0.2737 -0.15459,0.51158 -0.16127,0.76568 -0.01,0.37958 0.27484,0.50653 -0.10332,0.82182 -0.11291,-0.71037 -0.66946,-0.66146 -1.25677,-0.66146 v 0.66146 h -0.33073 c 0,-0.55854 -0.1602,-1.2796 0.33073,-1.65364 m -14.155209,0.0661 -0.791898,0.41791 -0.332582,1.16959 c 0,-0.78553 0.143405,-1.32281 -0.79375,-1.32291 v -0.26459 h 1.91823 m 4.034895,1.5875 v -0.39687 h -1.25677 v 0.39687 h -0.33073 c 0,-0.33291 -0.06224,-0.74227 0.05913,-1.05828 0.535847,-1.39535 2.685058,0.0948 1.528365,1.05828 m 2.447396,-1.5875 c -0.239249,0.28728 -0.507934,0.26455 -0.859896,0.26459 0,0.49447 0.102196,0.99308 -0.330729,1.32291 v -1.32291 h -0.727604 v -0.26459 h 1.918229 m 2.711979,0 c -0.441325,0.52985 -1.212321,-6.8e-4 -1.653646,0.52917 0.399124,0.095 0.878682,-0.031 1.253133,0.13291 0.390128,0.17075 0.40726,0.71065 7.28e-4,0.87632 -0.449858,0.18334 -1.168863,0.0491 -1.650736,0.0491 0.28575,-0.37512 0.623227,-0.32778 1.058334,-0.33077 0.126338,-8.8e-4 0.448667,0.0317 0.487428,-0.14348 0.05867,-0.26522 -1.083336,-0.15853 -1.252471,-0.30245 -0.241498,-0.20544 -0.190368,-0.65061 0.107487,-0.77089 0.442913,-0.17888 1.174485,-0.0399 1.649743,-0.0399 m 2.116667,0 v 1.5875 h -0.330729 v -1.19062 l -0.595313,0.59531 h -0.06615 l -0.529166,-0.52917 v 1.12448 c -0.515673,-0.26008 -0.330729,-1.09072 -0.330729,-1.5875 l 0.926041,0.39321 0.926042,-0.39321 m 0.86016,0.034 c 1.11297,-0.33873 1.934171,1.16897 0.72734,1.51563 -1.009716,0.29005 -1.833232,-1.17906 -0.72734,-1.51563 m 5.754431,-0.034 c -0.35124,0.42166 -1.08334,0.26459 -1.5875,0.26459 v 0.33072 h 1.32291 v 0.33073 h -1.32291 v 0.33073 h 1.5875 v 0.33073 c -0.36797,0 -1.61145,0.19543 -1.85024,-0.10606 -0.22423,-0.2831 -0.068,-1.12944 -0.068,-1.48144 h 1.91823 m -24.341674,1.71979 h 0.661458 c 0.102354,-0.33719 0.34509,-0.32961 0.661458,-0.33073 v 0.59532 c 0.646999,-0.33316 0.512551,-0.31561 1.190625,0 v -0.92604 l 0.264584,0.26458 h 0.06615 l 0.330729,-0.26458 v 0.66145 h 0.595312 v -1.65364 l -0.926041,0.1973 -0.992188,-0.1973 v 0.33073 c -0.442224,-0.39298 -1.351776,-0.55885 -1.699022,0.0688 -0.200435,0.36231 -0.153061,0.85545 -0.153061,1.25411 m -0.529167,-1.4552 v 1.25677 h -0.198437 c 0,-0.40787 -0.112045,-0.95272 0.198437,-1.25677 m 2.050521,1.25677 v -0.33073 H 80.60413 v 0.33073 h -0.198438 c 0,-0.28424 -0.06096,-0.65441 0.05675,-0.91982 0.426158,-0.96083 2.147451,0.13064 1.200018,0.91982 m 1.256771,-0.79375 h 0.06615 c 0.196995,-0.27635 0.382752,-0.43704 0.727604,-0.46302 v 1.25677 h -0.198438 v -0.99219 l -0.529166,0.52917 h -0.06615 l -0.463021,-0.46303 v 0.92605 c -0.370397,-0.30853 -0.264583,-0.81405 -0.264583,-1.25677 0.344851,0.026 0.530602,0.18666 0.727604,0.46302 m 6.416146,0.13229 h 1.25677 c -0.136855,-0.74887 -1.168003,-0.79411 -1.25677,0 m 6.482291,-0.59531 v 0.46302 l -0.264583,-0.19844 v -0.0661 l 0.264583,-0.19843 m 3.045619,0.0491 c -0.740503,0.30043 -0.05993,1.1714 0.585192,0.89398 0.662061,-0.28468 0.01521,-1.13757 -0.585192,-0.89398 m -18.25916,0.6785 h 1.058333 c -0.07779,-0.69213 -0.980546,-0.69213 -1.058333,0 m 9.723437,-0.39688 v 0.0661 H 89.59996 c 0.228931,-0.23355 0.445492,-0.2017 0.727604,-0.0661 m 8.669007,-0.10258 c 0.407855,-0.10849 0.725884,0.42482 0.256778,0.54427 -0.406797,0.10361 -0.726678,-0.41929 -0.256778,-0.54427 m 3.369539,0.10258 v 0.33073 h -0.0662 l 0.0662,-0.33073 m -20.968233,0.1323 v 0.0661 H 80.86871 Z"
       id="path1042" />
  </g>
</svg>
