<?xml version="1.0" encoding="UTF-8" standalone="no"?>
<!-- Created with Inkscape (http://www.inkscape.org/) -->

<svg
   version="1.1"
   id="svg824"
   width="98.821594"
   height="10.641802"
   viewBox="0 0 98.821594 10.641802"
   sodipodi:docname="i_am_that_smoke_logo_2.svg"
   inkscape:version="1.1.1 (c3084ef, 2021-09-22)"
   xmlns:inkscape="http://www.inkscape.org/namespaces/inkscape"
   xmlns:sodipodi="http://sodipodi.sourceforge.net/DTD/sodipodi-0.dtd"
   xmlns="http://www.w3.org/2000/svg"
   xmlns:svg="http://www.w3.org/2000/svg">
  <defs
     id="defs828" />
  <sodipodi:namedview
     id="namedview826"
     pagecolor="#ffffff"
     bordercolor="#666666"
     borderopacity="1.0"
     inkscape:pageshadow="2"
     inkscape:pageopacity="0.0"
     inkscape:pagecheckerboard="0"
     showgrid="false"
     inkscape:zoom="24.744298"
     inkscape:cx="10.729745"
     inkscape:cy="3.8392683"
     inkscape:window-width="1312"
     inkscape:window-height="798"
     inkscape:window-x="0"
     inkscape:window-y="25"
     inkscape:window-maximized="0"
     inkscape:current-layer="g830" />
  <g
     inkscape:groupmode="layer"
     inkscape:label="Image"
     id="g830"
     transform="translate(0.07159561,-0.25)">
    <rect
       style="fill:#000000;fill-opacity:1;fill-rule:evenodd;stroke:#ffffff;stroke-width:1;stroke-linecap:round;stroke-linejoin:round;stroke-miterlimit:100;stroke-dasharray:none;stroke-opacity:1"
       id="rect1636"
       width="19.487936"
       height="9.7910767"
       x="0.34604219"
       y="0.68308783"
       ry="1.8291024" />
    <path
       style="fill:#ffffff;fill-opacity:1;fill-rule:nonzero;stroke:#ffffff;stroke-width:0.00341184;stroke-linecap:round;stroke-linejoin:round;stroke-miterlimit:100"
       d="m 24.835838,7.4805166 c 0.0048,-0.2739766 0.01585,-0.7104828 0.02446,-0.9700139 0.01656,-0.4988112 0.0093,-1.2094801 -0.01476,-1.4498178 C 24.7794,4.4004783 24.620055,3.9912368 24.304965,3.6723321 23.907813,3.2703717 23.328543,3.0726079 22.362756,3.0092589 22.249917,3.0018574 22.140667,2.9957063 22.11998,2.99559 l -0.03761,-2.116e-4 v -0.492391 -0.492391 h 3.488643 3.488643 l -0.059,0.085285 c -0.09141,0.1321287 -0.279532,0.3199291 -0.400625,0.399942 -0.280545,0.185371 -0.532544,0.2622086 -1.078586,0.328874 -0.677673,0.082736 -0.831329,0.1124365 -1.042548,0.2015176 -0.20823,0.087821 -0.386232,0.2348057 -0.502312,0.4147844 -0.314978,0.4883648 -0.384988,1.0152454 -0.270651,2.0368497 0.07809,0.6977031 0.08578,0.9804266 0.03458,1.2702806 -0.08344,0.4723784 -0.331459,0.8429648 -0.764532,1.142348 -0.166475,0.115084 -0.150256,0.1625297 -0.140143,-0.4099615 z"
       id="path2353"
       transform="translate(-0.07159561,0.25)" />
    <path
       style="fill:#ffffff;fill-opacity:1;fill-rule:nonzero;stroke:#ffffff;stroke-width:0.00341184;stroke-linecap:round;stroke-linejoin:round;stroke-miterlimit:100"
       d="m 30.078613,7.8611585 c -0.0042,-0.069584 -0.01105,-0.2342276 -0.01519,-0.3658738 -0.0041,-0.1316462 -0.01958,-0.4332357 -0.03432,-0.6701988 -0.01473,-0.2369632 -0.03312,-0.5337799 -0.04085,-0.6595926 -0.05809,-0.9447053 -0.03967,-1.7295722 0.05406,-2.3030376 0.15267,-0.934144 0.524965,-1.5931833 1.135613,-2.0102721 l 0.129937,-0.08875 0.0035,1.2451386 0.0035,1.2451386 h 1.559167 1.559166 v 0.6170417 0.6170418 l -0.06336,-0.0095 C 34.08046,5.4349016 33.483441,5.419862 32.935484,5.44216 32.415978,5.4633 31.909873,5.482228 31.584829,5.492674 l -0.270131,0.00868 v 1.243161 1.2431606 h -0.614213 -0.614212 z"
       id="path2392"
       transform="translate(-0.07159561,0.25)" />
    <path
       style="fill:#ffffff;fill-opacity:1;fill-rule:nonzero;stroke:#ffffff;stroke-width:0.00341184;stroke-linecap:round;stroke-linejoin:round;stroke-miterlimit:100"
       d="m 38.325714,7.731222 c -0.0051,-0.1410495 -0.02186,-0.5457333 -0.03734,-0.8992974 -0.03336,-0.7618311 -0.03011,-1.5738549 0.0076,-1.9052034 0.06662,-0.5850899 0.2081,-1.0963449 0.437932,-1.5825659 0.237482,-0.5024045 0.59109,-0.9260021 1.001878,-1.2001793 0.865813,-0.5778802 2.082441,-0.5521253 3.3251,0.07039 0.525193,0.2630978 0.977245,0.5864841 1.415665,1.0127314 0.865218,0.8411954 1.339289,1.8626782 1.268213,2.7326221 -0.06332,0.7749806 -0.488715,1.4219102 -1.272311,1.9348839 l -0.143614,0.094016 -0.0035,-0.7458967 -0.0035,-0.7458967 h -2.379773 -2.379773 v 0.7454252 0.7454252 h -0.61367 -0.613669 z M 44.317515,5.1513297 C 44.312827,5.0958675 44.2932,4.9756978 44.273899,4.884286 44.11798,4.1458144 43.666993,3.5668399 42.995305,3.2428371 42.021184,2.7729487 40.832163,2.9562921 40.159759,3.6800699 39.807988,4.0587177 39.61754,4.5293845 39.569292,5.1393307 l -0.0089,0.1128396 h 2.382837 2.382836 z"
       id="path2431"
       transform="translate(-0.07159561,0.25)" />
    <path
       style="fill:#ffffff;fill-opacity:1;fill-rule:nonzero;stroke:#ffffff;stroke-width:0.00341184;stroke-linecap:round;stroke-linejoin:round;stroke-miterlimit:100"
       d="m 40.608813,4.4622931 c 0.154676,-0.2434473 0.436945,-0.4879731 0.680181,-0.5892326 0.197705,-0.082305 0.318897,-0.1043155 0.571077,-0.1037181 0.180872,4.284e-4 0.254027,0.00663 0.368459,0.031236 0.28901,0.062144 0.649221,0.2043111 0.944583,0.3728049 l 0.129937,0.074124 0.0039,0.1261996 0.0039,0.1261995 h -1.363 -1.363 z"
       id="path2470"
       transform="translate(-0.07159561,0.25)" />
    <path
       style="fill:#ffffff;fill-opacity:1;fill-rule:nonzero;stroke:#ffffff;stroke-width:0.00341184;stroke-linecap:round;stroke-linejoin:round;stroke-miterlimit:100"
       d="M 49.081805,5.4846882 V 2.9953784 h -1.374592 -1.374591 v -0.492391 -0.492391 h 3.611287 3.611288 l -0.05022,0.078646 c -0.08302,0.1300118 -0.169415,0.2367533 -0.285292,0.352495 -0.296723,0.296377 -0.643973,0.4623559 -1.11547,0.5331737 -0.129196,0.019405 -0.651089,0.051998 -0.669237,0.041795 -0.0041,-0.00231 -0.2592,-0.00862 -0.566863,-0.01401 l -0.559387,-0.00981 0.0093,0.2782151 c 0.0051,0.1530183 0.01959,0.4659392 0.03222,0.6953797 0.03334,0.6058602 0.03297,1.6185479 -6.88e-4,1.8874176 -0.121727,0.9722664 -0.458914,1.5836771 -1.123238,2.036731 -0.06723,0.045852 -0.127244,0.083367 -0.133356,0.083367 -0.0061,0 -0.01111,-1.1201894 -0.01111,-2.4893099 z"
       id="path2509"
       transform="translate(-0.07159561,0.25)" />
    <path
       style="fill:#ffffff;fill-opacity:1;fill-rule:nonzero;stroke:#ffffff;stroke-width:0.00341184;stroke-linecap:round;stroke-linejoin:round;stroke-miterlimit:100"
       d="M 59.798147,8.198039 C 59.341873,8.1866596 58.7967,8.1547856 57.73284,8.077289 57.016608,8.0251153 56.831206,8.0142876 56.457846,8.002828 56.267649,7.996988 56.108417,7.988599 56.103998,7.98418 c -0.0233,-0.0233 0.216738,-0.3541509 0.381324,-0.5255866 0.360909,-0.3759321 0.806651,-0.5928559 1.397971,-0.6803347 0.372197,-0.055062 0.7861,-0.059216 2.058468,-0.020656 1.231185,0.037311 1.390862,0.033979 1.661489,-0.034671 0.343528,-0.087143 0.548085,-0.2845534 0.564804,-0.5450711 0.0052,-0.081214 9.59e-4,-0.1118842 -0.02335,-0.1683941 C 62.043295,5.7737362 61.681389,5.6243558 61.008608,5.5405313 60.621135,5.4922545 60.204564,5.4672562 59.39466,5.4436788 57.825082,5.3979864 57.363173,5.3407349 57.126064,5.1624964 56.875207,4.9739241 56.66667,4.6002741 56.576879,4.1784844 c -0.03759,-0.176563 -0.05173,-0.5620152 -0.02769,-0.7546743 0.03552,-0.2846119 0.131991,-0.571235 0.269955,-0.8020168 0.08721,-0.1458844 0.277978,-0.3450054 0.41432,-0.4324652 0.487278,-0.3125757 1.333483,-0.4554021 2.571519,-0.4340326 0.608079,0.010496 1.00041,0.034206 2.078984,0.1256403 0.870095,0.073761 1.240406,0.1009536 1.586057,0.1164669 0.176488,0.00792 0.323303,0.016819 0.326257,0.019773 0.003,0.00295 -0.02575,0.050382 -0.06378,0.1053968 -0.334055,0.4832064 -0.783382,0.7531249 -1.430626,0.8594022 -0.380102,0.062413 -0.709592,0.064608 -1.573659,0.010484 -0.551019,-0.034515 -1.249466,-0.040884 -1.470334,-0.013409 -0.599428,0.074567 -1.004403,0.2478605 -1.343779,0.5750201 -0.111126,0.1071259 -0.251088,0.2808364 -0.322782,0.4006127 l -0.02978,0.049748 0.106163,0.028187 c 0.476695,0.1265666 0.941466,0.1543934 2.228399,0.133419 0.988615,-0.016112 1.371489,0.00273 1.810053,0.089072 0.302985,0.059651 0.546267,0.1405309 0.800135,0.266008 0.549606,0.2716488 0.899691,0.7476312 1.000321,1.360057 0.02607,0.1586802 0.01775,0.5298058 -0.01519,0.6772002 -0.05345,0.2391773 -0.153683,0.4753761 -0.287302,0.6770376 -0.08672,0.1308857 -0.325769,0.3697506 -0.458471,0.4581248 -0.398965,0.2656948 -1.039128,0.4276622 -1.914854,0.484476 -0.23988,0.015563 -0.786551,0.026164 -1.032653,0.020027 z"
       id="path2548"
       transform="translate(-0.07159561,0.25)" />
    <path
       style="fill:#ffffff;fill-opacity:1;fill-rule:nonzero;stroke:#ffffff;stroke-width:0.00341184;stroke-linecap:round;stroke-linejoin:round;stroke-miterlimit:100"
       d="M 65.977127,7.9609019 C 65.487567,7.7847078 65.136367,7.3952527 64.927412,6.796846 64.768644,6.3421658 64.703355,5.8702316 64.691955,5.0948787 c -0.0091,-0.6207417 0.0025,-0.88479 0.0988,-2.2431144 0.0112,-0.1579754 0.02437,-0.411388 0.02926,-0.5631392 l 0.0089,-0.2759111 1.745165,0.8726039 1.745165,0.8726038 1.747304,-0.8736732 1.747304,-0.8736733 V 4.9991254 7.9876756 H 71.198366 70.582877 V 5.7445612 c 0,-1.2337129 -0.0046,-2.2431143 -0.01029,-2.2431143 -0.0057,0 -0.514962,0.5047007 -1.131784,1.1215571 L 68.319309,5.7445612 H 68.196214 68.07312 L 67.071207,4.7427173 66.069293,3.7408733 v 2.1234012 c 0,1.1678706 -0.0046,2.1231791 -0.01026,2.1229076 -0.0056,-2.708e-4 -0.0425,-0.012097 -0.08191,-0.02628 z"
       id="path2587"
       transform="translate(-0.07159561,0.25)" />
    <path
       style="fill:#ffffff;fill-opacity:1;fill-rule:nonzero;stroke:#ffffff;stroke-width:0.00341184;stroke-linecap:round;stroke-linejoin:round;stroke-miterlimit:100"
       d="M 76.347954,8.0480569 C 76.317864,8.0450731 76.225541,8.0361842 76.142792,8.0283036 75.932317,8.0082589 75.697717,7.9669201 75.487666,7.9128641 74.525015,7.6651277 73.811659,7.1242934 73.420649,6.345745 73.195627,5.8976996 73.085864,5.4180837 73.085864,4.8828771 c 0,-1.3183364 0.717397,-2.4136059 1.823065,-2.7833221 0.267849,-0.089564 0.678678,-0.1656561 1.067058,-0.1976357 0.221509,-0.018239 0.826664,-0.01845 1.042166,-3.63e-4 0.80712,0.067741 1.508854,0.2772157 1.976129,0.5898934 0.31628,0.2116396 0.630439,0.5846637 0.821815,0.9758033 0.146407,0.29923 0.238181,0.6060117 0.279995,0.93596 0.02846,0.2246042 0.02177,0.6857306 -0.01291,0.8899899 -0.124373,0.7324319 -0.441241,1.3633384 -0.929757,1.8512144 -0.605384,0.6045899 -1.366592,0.8862618 -2.443014,0.9039946 -0.16926,0.00279 -0.332364,0.00263 -0.362455,-3.556e-4 z M 77.332736,6.797279 C 77.821457,6.719868 78.257978,6.5205139 78.541217,6.2453793 78.814965,5.9794643 78.935586,5.7101145 78.94986,5.3328674 78.95826,5.1113099 78.93483,4.9474106 78.86477,4.7373684 78.586761,3.9037761 77.74608,3.1770927 76.850615,2.9963359 76.336489,2.8925554 75.881626,2.9409789 75.373908,3.1535436 c -0.307692,0.12882 -0.547767,0.2888881 -0.7465,0.4977235 -0.258294,0.2714225 -0.379569,0.5727464 -0.378482,0.9403859 5.78e-4,0.1951656 0.02146,0.3197004 0.08591,0.5122547 0.247575,0.7396699 1.001776,1.4023 1.855818,1.6304956 0.39009,0.10423 0.754374,0.1242854 1.142073,0.062876 z"
       id="path2626"
       transform="translate(-0.07159561,0.25)" />
    <path
       style="fill:#ffffff;fill-opacity:1;fill-rule:nonzero;stroke:#ffffff;stroke-width:0.00341184;stroke-linecap:round;stroke-linejoin:round;stroke-miterlimit:100"
       d="M 81.33319,7.9774175 C 81.32899,7.7859086 81.29953,7.162221 81.27903,6.8319246 81.23035,6.0478671 81.2232,5.9087838 81.21057,5.4990834 81.19204,4.8984049 81.21977,4.3127596 81.28627,3.8980951 81.440742,2.9354147 81.809524,2.2743606 82.427622,1.8521836 l 0.129937,-0.08875 0.0035,1.2430018 0.0035,1.2430019 0.338447,0.00892 c 1.464047,0.038598 1.947712,0.022663 2.472141,-0.081451 1.046347,-0.2077279 1.640231,-0.8207072 1.909994,-1.9714083 l 0.04569,-0.1949048 h 0.49115 0.49115 l -0.0085,0.1675497 c -0.02058,0.407824 -0.109863,0.723209 -0.426904,1.5079474 -0.179874,0.4452238 -0.250365,0.6502829 -0.29856,0.8685229 -0.126617,0.5733489 -0.05888,0.9092356 0.313054,1.5523993 0.238826,0.4129838 0.314373,0.5915157 0.329622,0.7789609 0.02768,0.3402157 -0.218345,0.6688147 -0.76263,1.0185983 l -0.128229,0.082406 -0.02353,-0.1877186 C 87.134361,6.4183135 86.434487,5.7266561 85.027575,5.5461274 84.940388,5.53494 84.80135,5.5191278 84.718601,5.5109893 84.524954,5.4919438 83.238574,5.4784127 82.857265,5.4914105 l -0.292875,0.00998 v 1.2431409 1.2431409 h -0.615488 c -0.338519,0 -0.615589,-0.00462 -0.615712,-0.010258 z"
       id="path2665"
       transform="translate(-0.07159561,0.25)" />
    <path
       style="fill:#ffffff;fill-opacity:1;fill-rule:nonzero;stroke:#ffffff;stroke-width:0.00341184;stroke-linecap:round;stroke-linejoin:round;stroke-miterlimit:100"
       d="M 90.609877,7.8445727 C 90.11885,7.767461 89.713989,7.7012588 89.710187,7.6974564 89.704538,7.6918076 89.58163,2.351371 89.581116,2.0892422 l -1.54e-4,-0.078646 h 2.92699 2.926991 V 2.4801737 2.949751 L 95.30437,2.979745 c -0.494595,0.1136122 -1.087078,0.1623303 -1.791119,0.1472782 -0.392809,-0.0084 -0.791033,-0.029522 -1.702853,-0.090326 -0.22944,-0.0153 -0.547955,-0.031836 -0.707812,-0.036747 l -0.290647,-0.00893 V 3.6223646 4.253709 h 2.311502 2.311502 V 4.8760383 5.4983658 H 93.123441 90.811939 V 6.127532 6.7566982 h 2.311502 2.311502 v 0.6154887 0.6154887 l -1.966144,-0.00145 -1.966145,-0.00145 z"
       id="path2704"
       transform="translate(-0.07159561,0.25)" />
    <path
       style="fill:#ffffff;fill-opacity:1;fill-rule:nonzero;stroke:#ffffff;stroke-width:0.00341184;stroke-linecap:round;stroke-linejoin:round;stroke-miterlimit:100"
       d="m 88.583166,5.4812689 c 3.66e-4,-0.0094 0.05207,-0.2694473 0.114904,-0.5778756 l 0.11424,-0.5607786 0.0014,0.5778756 0.0014,0.5778755 h -0.116259 c -0.08424,0 -0.116076,-0.00471 -0.115595,-0.017097 z"
       id="path2743"
       transform="translate(-0.07159561,0.25)" />
    <path
       style="fill:#ffffff;fill-opacity:1;fill-rule:nonzero;stroke:#ffffff;stroke-width:0.00341184;stroke-linecap:round;stroke-linejoin:round;stroke-miterlimit:100"
       d="m 63.556048,4.3536212 -0.482133,-0.3631795 5.65e-4,-0.1179803 5.66e-4,-0.1179803 0.439307,-0.3282606 c 0.241618,-0.1805434 0.46294,-0.3457191 0.491825,-0.3670571 l 0.05252,-0.038797 v 0.8491899 c 0,0.4670545 -0.0046,0.8487521 -0.01026,0.8482169 -0.0056,-5.348e-4 -0.227217,-0.1644037 -0.49239,-0.364152 z"
       id="path3028"
       transform="translate(-0.07159561,0.25)" />
    <path
       style="fill:#ffffff;fill-opacity:1;fill-rule:nonzero;stroke:#ffffff;stroke-width:0.00341184;stroke-linecap:round;stroke-linejoin:round;stroke-miterlimit:100"
       d="M 30.07858,7.874836 C 30.07438,7.812774 30.06755,7.648131 30.06335,7.5089622 30.05915,7.3697934 30.04674,7.1143655 30.03578,6.9413448 29.94005,5.4302305 29.930914,4.8292912 29.99448,4.2253781 30.115996,3.0708567 30.489644,2.3233303 31.182143,1.8493157 l 0.125719,-0.086054 0.0035,1.2452247 0.0035,1.2452247 h 2.379818 2.379818 V 3.1321536 2.0105964 h 0.491224 0.491224 l 0.0075,0.099162 c 0.0041,0.054539 0.01084,0.2037952 0.01492,0.33168 0.0041,0.1278849 0.02552,0.5064105 0.04765,0.8411679 0.02213,0.3347575 0.04744,0.751924 0.05624,0.9270367 0.02096,0.4168783 0.0096,1.3189262 -0.01997,1.5896283 -0.09888,0.904348 -0.327441,1.4938973 -0.740008,1.908784 -0.07523,0.075649 -0.182937,0.1697767 -0.239357,0.2091715 L 36.08134,7.9888538 36.07194,7.7454884 C 36.02001,6.4017622 35.554357,5.7154401 34.556623,5.512115 34.199472,5.439332 33.619555,5.414306 32.935484,5.442154 32.416733,5.463272 31.910276,5.482216 31.584829,5.492674 l -0.270131,0.00868 v 1.243161 1.2431606 h -0.614261 -0.614261 z"
       id="path3178"
       transform="translate(-0.07159561,0.25)" />
    <path
       style="fill:#ffffff;fill-opacity:1;fill-rule:nonzero;stroke:#ffffff;stroke-width:0.00341184;stroke-linecap:round;stroke-linejoin:round;stroke-miterlimit:100"
       d="m 90.610078,7.8449985 c -0.490917,-0.077125 -0.895832,-0.143483 -0.899812,-0.1474629 -0.0088,-0.00881 -0.134522,-5.672603 -0.126098,-5.6810273 0.0033,-0.00328 1.629193,-0.00441 3.613141,-0.00252 l 3.607177,0.00345 -0.06756,0.095743 c -0.544533,0.771654 -1.649244,1.0842769 -3.551936,1.0051609 -0.29973,-0.012463 -0.621389,-0.031711 -1.484012,-0.088802 -0.169259,-0.011202 -0.438535,-0.024447 -0.598392,-0.029434 l -0.290647,-0.00907 V 3.622372 4.2537071 h 2.502987 2.502988 V 4.8760383 5.4983658 H 93.314926 90.811939 V 6.127532 6.7566982 h 3.002217 3.002217 v 0.6154887 0.6154887 l -2.656859,-0.00123 -2.65686,-0.00123 -0.892576,-0.1402269 z"
       id="path3217"
       transform="translate(-0.07159561,0.25)" />
    <path
       style="fill:#ffffff;fill-opacity:1;fill-rule:nonzero;stroke:#ffffff;stroke-width:0.00341184;stroke-linecap:round;stroke-linejoin:round;stroke-miterlimit:100"
       d="M 91.372718,7.9645843 C 91.308778,7.9536923 90.910224,7.8908093 90.487048,7.824844 90.063872,7.758879 89.714316,7.7015857 89.710256,7.6975255 c -0.0091,-0.00905 -0.13496,-5.6721453 -0.126304,-5.6808014 0.0034,-0.0034 1.629409,-0.00463 3.613357,-0.00273 l 3.607177,0.00345 -0.06997,0.099636 C 96.35731,2.6542013 95.684135,2.9713563 94.682681,3.0837675 94.0605,3.1536065 93.52503,3.1479485 92.109203,3.0565785 91.705585,3.0305315 91.248584,3.0051305 91.093646,3.0001335 l -0.281705,-0.00909 v 0.6313354 0.6313355 h 2.502987 2.502988 v 0.6223239 0.6223275 h -2.50299 -2.502987 V 6.127532 6.7566982 h 3.002217 3.002217 v 0.6154887 0.6154887 l -2.663698,-0.00164 c -2.257036,-0.00139 -2.681447,-0.00467 -2.779957,-0.021447 z"
       id="path3256"
       transform="translate(-0.07159561,0.25)" />
    <path
       style="fill:#ffffff;fill-opacity:1;fill-rule:nonzero;stroke:#ffffff;stroke-width:0.00341184;stroke-linecap:round;stroke-linejoin:round;stroke-miterlimit:100"
       d="M 91.112845,7.924942 C 90.905972,7.8918587 90.518214,7.8308041 90.25116,7.7892652 89.984107,7.7477261 89.752434,7.710801 89.736332,7.7072092 c -0.02829,-0.00631 -0.02957,-0.015379 -0.03807,-0.2699384 -0.0048,-0.1448745 -0.02071,-0.8235027 -0.03527,-1.5080629 -0.01456,-0.6845603 -0.03003,-1.3892948 -0.03438,-1.5660769 -0.01541,-0.6270228 -0.0475,-2.1421221 -0.04758,-2.2465337 l -8.2e-5,-0.1060009 h 3.611348 3.611348 l -0.01613,0.030775 c -0.0373,0.071192 -0.196673,0.2603018 -0.302173,0.3585608 -0.427127,0.3978103 -1.069179,0.6225698 -2.021521,0.7076627 -0.284982,0.025463 -1.240253,0.021303 -1.689175,-0.00736 -0.195589,-0.012487 -0.592579,-0.037877 -0.8822,-0.056422 -0.289622,-0.018546 -0.651222,-0.037988 -0.803555,-0.043204 l -0.27697,-0.00948 V 3.622419 4.2537108 h 2.502987 2.502988 V 4.8760383 5.4983658 H 93.314926 90.811939 V 6.127532 6.7566982 h 3.002217 3.002217 v 0.6154887 0.6154887 l -2.663698,-0.00129 -2.663698,-0.00129 -0.376132,-0.060151 z"
       id="path3295"
       transform="translate(-0.07159561,0.25)" />
    <path
       style="fill:#ffffff;fill-opacity:1;fill-rule:nonzero;stroke:#ffffff;stroke-width:0.00629717;stroke-linecap:round;stroke-linejoin:round;stroke-miterlimit:100"
       d="m 76.301047,5.9835619 c -0.817781,-0.2173338 -1.369774,-0.939339 -1.169536,-1.5297483 0.05392,-0.1589961 0.293776,-0.4014407 0.490994,-0.4963001 0.501014,-0.2409818 1.058255,-0.2401144 1.572,0.00245 0.646836,0.3053994 1.038736,0.9075581 0.887332,1.3633948 -0.08872,0.2671233 -0.388077,0.5019436 -0.808883,0.6345103 -0.259335,0.081698 -0.715776,0.093766 -0.971907,0.025696 z"
       id="path4560"
       transform="translate(-0.07159561,0.25)" />
    <path
       style="fill:#ffffff;fill-opacity:1;fill-rule:nonzero;stroke:#ffffff;stroke-width:0.00201436;stroke-linecap:round;stroke-linejoin:round;stroke-miterlimit:100"
       d="M 49.077335,4.9097523 V 2.9959179 h -1.376831 -1.37683 V 2.49929 2.0026621 h 1.958248 1.958249 v 2.2274544 2.2274543 l -0.02384,0.080049 c -0.01311,0.044027 -0.04111,0.1263802 -0.06223,0.1830079 l -0.03839,0.1029594 h -0.519192 -0.519192 z"
       id="path4626"
       transform="translate(-0.07159561,0.25)" />
    <path
       style="fill:#cc0000;fill-opacity:1;stroke:none;stroke-width:0.249449;stroke-miterlimit:100;stroke-dasharray:none"
       d="m 31.75,0.25 c -2.14275,2.086395 -7.83955,1 -10.75,1 V 4 C 21.687675,4 22.891925,3.76615 23.5,4.125 24.62235,4.78735 24,8.805975 24,10 L 26.45825,7.5 26.625,4.5 29.25,3.25 V 9 H 32 V 6.5 h 3 V 10 l 2.5,-2 v 1 h 2.75 V 7.5 H 43.5 V 10 C 46.2405,8.4134 46.2185,6.767975 46,4 h 2.25 v 6 C 51.167,9.15565 51,6.43915 51,4 52.889,4 54.668,3.260625 55.25,1.25 h -7.5 C 46.47225,1.25 45.29175,0.9157725 45.25,2.5 43.0965,1.02652 39.17675,0.51892 38,3.5 H 37.75 V 1.25 C 35.394,1.25 35,1.3229675 35,3.75 H 32 L 31.75,0.25 M 83,0.25 80.5,3.5 h -0.25 c -0.85975,-2.9703075 -6.639,-2.97458 -7.5,0 H 72.5 V 1.25 c -1.93325,0 -3.19975,0.1858225 -4.25,2 H 68 C 67.61,2.57645 66.985,1.7424625 66.25,1.375 65.585,1.04251 64.47675,1.25 63.75,1.25 61.5935,1.25 57.4645,0.4795825 56.04175,2.5 55.007,3.9694 56.5525,4.9893 56.5,6.25 56.4635,7.1285 54.69625,8.229 54.25,9 h 7.5 L 64,8 66.75,10 V 5.75 c 1.3105,1.310475 1.6895,1.31045 3,0 V 9 H 72.5 V 6.75 h 0.25 c 0.8765,3.028075 6.38675,3.070425 7.5,0.25 h 0.25 v 2 h 2.75 V 6.5 c 2.73275,0 3.25,0.8334 3.25,3.5 L 88.75,8 V 9 H 97.5 V 6.25 h -1 l 2.25,-5 H 86.5 c 0,2.449975 -1.09875,2.5 -3.25,2.5 L 83,0.25 M 3.25,1.5 c -2.3339325,2.33395 -2,4.092325 -2,7.25 H 3.5 L 3.25,1.5 m 28,0.5 V 4.5 H 36 V 2.25 h 1 c 0,1.775825 0.6835,4.99895 -1,6 0,-3.2024 -2.1125,-2.5 -4.75,-2.5 v 2.5 H 30 C 30,6.23685 29.28925,3.1351 31.25,2 M 82.5,2 v 2.5 c 2.17375,0 4.259,0.415 4.75,-2.25 h 1 c 0,1.14925 -0.725,1.949625 -0.79175,2.91665 C 87.36475,6.522725 89.22125,7.0779 87.25,8.25 87.027,5.424225 84.696,5.75 82.5,5.75 v 2.5 H 81.25 C 81.25,6.23685 80.53925,3.1351 82.5,2 M 29,2.25 c -0.80775,1.35845 -2.46875,0.38815 -3.125,1.5 -0.910775,1.543275 0.78625,3.363625 -1.125,4.5 0,-3.14245 0.655,-5 -3,-5 v -1 H 29 m 15.25,6 V 6.75 H 39.5 v 1.5 H 38.25 C 38.25,7.0614 38.04425,5.6565 38.33325,4.5 39.91,-1.806885 49.2005,5.306425 44.25,8.25 m 9.25,-6 c -0.75175,1.2644 -1.918,1 -3.25,1 0,1.816425 0.526,3.971875 -1.25,5 v -5 h -2.75 v -1 h 7.25 m 10.25,0 c -1.3735,2.30985 -4.8765,-0.309875 -6.25,2 1.56475,0.45295 3.55525,-0.223275 5,0.54165 1.38925,0.735425 1.25475,2.84515 -0.25,3.375 C 60.54175,8.768125 57.811,8.25 56,8.25 56.91525,6.669075 58.371,7 60,7 60.52825,7 61.90375,7.230925 62.08325,6.5 62.3775,5.30185 57.725,5.9802 57.04175,5.41665 56.19625,4.719625 56.255,2.9018 57.25,2.375 58.7185,1.5975025 62.0855,2.25 63.75,2.25 m 8,0 v 6 H 70.5 V 3.75 L 68.25,6 H 68 L 66,4 V 8.25 C 63.977,7.664425 64.75,3.979225 64.75,2.25 L 68.25,4 71.75,2.25 M 75,2.2916575 C 76.222,1.9691775 78.346,2.0667725 79.25,3 80.84775,4.649175 79.93075,7.621425 77.75,8.16665 76.32,8.524175 74.48975,8.250975 73.58325,7 72.458,5.44705 72.98775,2.82265 75,2.2916575 M 96.75,2.25 c -1.001,1.6836 -4.22425,1 -6,1 V 4.5 h 5 v 1.25 h -5 V 7 h 6 V 8.25 H 91.5 L 89.625,7.95835 89.5,2.25 h 7.25 m -92,6.5 h 2.5 C 7.4054,7.273775 8.541775,7.5 9.75,7.5 v 2.25 l 2,-1.58335 2.5,1.58335 v -3.5 l 1,1 h 0.25 l 1.25,-1 v 2.5 H 19 V 2.5 L 16.75,2.625 15.5,3.5 14.25,2.625 11.75,2.5 V 3.75 C 10.1293,2.171935 6.555175,1.6239025 5.25,4 4.525275,5.3194 4.75,7.287525 4.75,8.75 m -2,-5.5 V 8 H 2 C 2,6.580875 1.474635,4.075225 2.75,3.25 M 10.5,8 V 6.75 h -4 V 8 H 5.75 C 5.75,6.99915 5.5331,5.71625 5.791675,4.75 6.97935,0.3117675 14.723875,5.488525 10.5,8 M 15.25,5 H 15.5 C 16.16395,3.853175 16.90935,3.25 18.25,3.25 V 8 H 17.5 V 4.25 l -2,2 H 15.25 L 13.5,4.5 V 8 c -1.527175,-0.908025 -1,-3.1543 -1,-4.75 1.34065,0 2.08605,0.603175 2.75,1.75 M 39.5,5.5 h 4.75 C 44.016,2.535825 39.58075,2.4352425 39.5,5.5 M 64,3.25 V 5 L 63,4.25 V 4 L 64,3.25 M 75.5,3.33335 C 72.523,4.3816 75.1475,7.8596 77.75,6.91665 80.37175,5.966725 77.932,2.47699 75.5,3.33335 M 6.5,6 h 4 C 10.428225,3.272975 6.571775,3.272975 6.5,6 M 43.25,4.5 V 4.75 H 40.5 C 41.184,3.692875 42.26075,3.901225 43.25,4.5 M 76,4.04165 c 1.47425,-0.311475 3.06575,1.579225 1.25,2.1667 C 75.44025,6.793825 73.92275,4.480525 76,4.04165 M 88.75,4.5 V 5.75 H 88.5 L 88.75,4.5 M 9.5,5 v 0.25 h -2 C 8.046025,4.579875 8.72905,4.675375 9.5,5 Z"
       id="path1514" />
  </g>
</svg>
