<?xml version="1.0" encoding="UTF-8" standalone="no"?>
<svg
   xmlns:dc="http://purl.org/dc/elements/1.1/"
   xmlns:cc="http://creativecommons.org/ns#"
   xmlns:rdf="http://www.w3.org/1999/02/22-rdf-syntax-ns#"
   xmlns:svg="http://www.w3.org/2000/svg"
   xmlns="http://www.w3.org/2000/svg"
   width="677.33331mm"
   height="381mm"
   viewBox="0 0 677.33331 381"
   version="1.1"
   id="svg228">
  <defs
     id="defs222" />
  <metadata
     id="metadata225">
    <rdf:RDF>
      <cc:Work
         rdf:about="">
        <dc:format>image/svg+xml</dc:format>
        <dc:type
           rdf:resource="http://purl.org/dc/dcmitype/StillImage" />
        <dc:title></dc:title>
      </cc:Work>
    </rdf:RDF>
  </metadata>
  <g
     id="layer1"
     transform="translate(411.99405,205.61905)">
    <path
       style="fill:#ffffff;stroke:none;stroke-width:0.352778;fill-opacity:1"
       d="m -307.21905,-121.86114 c -5.93725,0.77964 -11.80606,1.14865 -17.63889,2.72592 -19.11068,5.16854 -35.98228,16.47507 -47.80915,32.402281 -26.04872,35.080575 -20.92085,86.35259178 11.47304,115.651139 10.67011,9.650942 23.52781,16.258117 37.39444,19.909014 10.03759,2.643011 21.10952,3.202869 31.39722,1.922639 41.18398,-5.124097 74.35885,-40.009939 76.18624,-81.743903 1.77412,-40.515117 -25.11672,-77.25516 -64.19179,-87.99124 -8.29487,-2.27895 -18.20792,-4.00544 -26.81111,-2.87585 m 0.35277,7.00687 c 6.96948,-0.82267 14.71613,0.36548 21.51945,1.8662 37.35034,8.23736 64.68215,44.016081 62.05749,82.346798 -2.71674,39.6670387 -33.23731,70.065547 -72.28805,74.687994 -6.89257,0.815975 -14.35523,0.207434 -21.16666,-0.929216 -48.88407,-8.156575 -77.80436,-61.147325 -60.52778,-106.919889 7.86829,-20.845992 24.87288,-37.934547 45.71111,-45.838537 8.07649,-3.06352 16.19568,-4.21075 24.69444,-5.21335 m 177.44722,87.03522 h 30.338888 c 2.916414,0 9.04875,1.169106 9.339791,-3.175353 0.310445,-4.638322 -6.067072,-3.880203 -8.987013,-3.880203 h -30.691666 v -39.863888 c 0,-3.239206 1.4037,-12.782903 -4.58082,-11.135784 -2.74743,0.756356 -2.47474,3.963811 -2.47474,6.196895 v 18.344444 50.8 c 0,9.3112168 -1.14229,19.4623973 1.01742,28.575 3.37008,14.219414 13.14273,25.804283 26.85203,31.11112 4.28343,1.658055 9.154581,2.74073 13.758331,2.755194 2.1844,0.0071 4.889853,-0.43815 5.105047,-3.174647 0.36195,-4.60375 -5.738988,-3.832225 -8.632824,-4.233334 -9.666814,-1.339497 -18.568454,-6.912327 -24.236534,-14.816666 -6.82308,-9.515122 -6.80791,-19.8497474 -6.80791,-31.0444447 V -27.81905 m 56.091665,-49.930403 c -18.05693,3.255786 -18.99426,30.135689 -1.411111,34.940875 2.595739,0.709436 5.81413,0.839259 8.466666,0.361597 18.379722,-3.307997 19.057055,-29.989286 1.411111,-34.962747 -2.574219,-0.725311 -5.829652,-0.815269 -8.466666,-0.339725 m 3.527778,6.740172 c 14.23811,0 14.273388,21.670787 0,21.670787 -14.086769,0 -14.093825,-21.670787 0,-21.670787 m -267.405543,2.417939 c -7.84508,1.067506 -15.06714,5.275792 -18.18429,12.902848 -1.17369,2.871258 -3.75038,11.255022 1.25095,11.940469 4.85211,0.664986 4.23722,-6.861175 5.74076,-9.823803 2.98167,-5.875161 9.72432,-9.107664 16.13147,-7.583664 4.68982,1.115484 8.42962,4.59105 10.27394,8.994775 1.24742,2.977798 0.23601,9.233606 5.24792,8.384823 5.28567,-0.89535 2.01966,-10.082389 0.57538,-12.970934 -3.70416,-7.40798 -12.58323,-12.994569 -21.03613,-11.844514 m 63.14722,0 c -7.8987,1.074914 -14.79586,5.358342 -18.03647,12.902848 -1.27847,2.976386 -3.95923,11.514313 1.45591,11.9507 4.78896,0.385586 3.89961,-6.812845 5.42467,-9.834034 2.93405,-5.812014 9.82556,-9.067447 16.09478,-7.610122 4.58117,1.065036 8.69209,4.642203 10.41929,9.021233 1.15358,2.924175 0.18909,9.215967 5.10257,8.384823 5.37422,-0.909462 2.07328,-10.045348 0.61066,-12.970934 -3.73803,-7.476066 -12.54301,-13.0048 -21.07141,-11.844514 m 114.29999,33.513536 c -18.00366,2.37102 -33.16358,13.241514 -38.30214,31.2476449 -1.82633,6.4011528 -1.56175,12.8181805 -1.56175,19.4027781 v 27.869444 c 0,3.008842 -0.54751,8.63212 4.23193,7.662686 4.23615,-0.859366 2.82363,-8.427861 2.82363,-11.543241 0,-11.616267 -1.3141,-24.107423 0.10089,-35.630556 1.63231,-13.2898444 10.71175,-24.872597 23.18244,-29.700008 3.29424,-1.275292 6.73841,-1.888773 10.23056,-2.301875 1.76177,-0.208845 3.81811,0.246944 5.13856,-1.239661 3.78707,-4.26332 -2.7171,-6.178903 -5.84412,-5.767212 m 89.605908,0.452967 c -5.154789,0.668867 -3.175353,12.316883 -3.175353,15.978011 v 52.563889 c 0,4.696178 -0.577497,9.812867 0.06667,14.463889 0.263878,1.906411 1.7526,3.633258 3.81388,3.436761 5.216525,-0.497064 3.175,-12.432594 3.175,-16.136761 v -52.563889 c 0,-4.718403 0.766586,-10.177286 -0.08043,-14.816667 -0.325261,-1.780822 -1.943806,-3.16618 -3.799769,-2.925233 m 58.913534,0.252942 c -17.68475,2.407355 -32.46261,14.438841 -37.083999,31.952847 -1.883833,7.1423389 -1.368778,14.556669 -1.368778,21.872222 v 25.047222 c 0,2.72027 -0.483305,7.380817 3.527778,7.332839 3.742972,-0.04445 3.527778,-4.367741 3.527778,-6.980061 V 21.569839 c 0,-8.941858 -0.804334,-17.9856696 2.628194,-26.4583334 7.069666,-17.4526226 26.497138,-26.2434916 44.2912484,-21.0170886 3.2773055,0.962377 6.3182496,2.532944 9.1722216,4.388908 17.889361,11.6374333 16.227778,31.149925 16.227778,49.789292 0,6.342591 -0.162278,12.709525 0.0035,19.05 0.05997,2.230966 1.231195,4.74733 3.877028,4.495094 4.028722,-0.383822 3.175,-5.177014 3.175,-8.022872 V 17.336506 c 0,-9.2508921 0.03528,-17.77647267 -3.679472,-26.4583338 C 25.901935,-25.861133 6.8907411,-36.839578 -11.238508,-34.371897 M 132.34204,32.50595 c 1.00895,3.415947 0.35278,7.7343 0.35278,11.288889 0,6.964539 -0.32808,13.302897 -3.28436,19.755555 -7.18608,15.688028 -24.92022,23.955023 -41.518416,20.025078 -7.411861,-1.755069 -13.553722,-6.040261 -18.665472,-11.558411 -1.728611,-1.866194 -2.801055,-4.546247 -4.691944,-6.202186 -1.813278,-1.587147 -4.748389,-1.074561 -5.662083,1.268589 -1.118306,2.880783 2.226028,6.412442 3.855861,8.461375 5.570361,7.007225 13.409083,12.081228 21.988638,14.513278 20.806836,5.897033 43.190586,-4.830586 51.706636,-24.743834 3.92995,-9.190566 3.3267,-18.809052 3.3267,-28.575 0,-17.499189 3.00566,-37.31224689 -7.41892,-52.563889 -16.93333,-24.781227 -55.125055,-24.729016 -71.772637,0.352778 -14.894278,22.4370197 -5.528028,53.470528 19.219332,64.05492 13.835944,5.916789 30.180135,3.799769 42.333335,-4.939242 3.82764,-2.751667 8.49489,-6.623403 10.23055,-11.1379 m 62.44167,-66.877847 c -6.84036,0.93098 -13.21859,3.043414 -19.05,6.799086 -4.60728,2.967567 -8.56545,6.902803 -11.68047,11.395428 -16.637,23.9680747 -4.62845,58.537827 23.67491,66.524011 5.94783,1.677811 12.24845,1.973086 18.34445,1.108428 5.98663,-0.848431 11.87097,-3.07587 16.93333,-6.370814 25.82333,-16.805275 26.27841,-56.155167 0,-72.884242 -4.191,-2.667 -8.88647,-4.708172 -13.75833,-5.732639 -4.65314,-0.978958 -9.72256,-1.484842 -14.46389,-0.839258 M 92.125377,-27.365378 C 122.88407,-31.142569 144.31532,4.966 125.9356,30.036506 c -2.78695,3.806472 -6.15245,7.007225 -10.17411,9.501716 -4.70959,2.922059 -10.04711,4.5593 -15.52222,5.214056 -4.374449,0.523169 -9.175754,0.08502 -13.405559,-1.108428 -29.823833,-8.414456 -35.972749,-49.8799556 -9.172222,-66.012483 4.402666,-2.650773 9.362722,-4.370211 14.463888,-4.996745 m 103.011103,0 c 30.77281,-3.778955 52.19348,32.3274974 33.81023,57.401884 -2.78695,3.806472 -6.15245,7.007225 -10.17412,9.501716 -4.70958,2.922059 -10.04711,4.5593 -15.52222,5.214056 -4.26155,0.510116 -8.91469,0.09102 -13.05277,-1.01212 -30.03198,-8.008055 -36.51956,-50.0489358 -9.525,-66.107733 4.4203,-2.630664 9.35566,-4.370211 14.46388,-4.997803 m -517.17044,13.215056 c -5.70935,2.140303 -0.54998,12.9240137 1.6764,15.9646053 5.80602,7.9290334 16.36325,10.8779027 25.48573,7.3854028 6.34188,-2.4278167 11.40848,-8.1661 12.96952,-14.7937361 0.65052,-2.76225 1.69968,-9.185275 -3.09174,-8.728428 -4.1589,0.396522 -3.34822,6.5464974 -4.70006,9.4339836 -2.69276,5.75098329 -8.79299,9.0783833 -15.0555,8.4052833 -5.4109,-0.5813778 -10.03124,-4.8150639 -11.83816,-9.8163945 -0.66076,-1.8284472 -0.49601,-3.8230524 -1.09185,-5.6391524 -0.57961,-1.766711 -2.54741,-2.888898 -4.35434,-2.211564 z"
       id="path312" />
  </g>
</svg>
